<svg width="85" height="44" viewBox="0 0 85 44" fill="none" xmlns="http://www.w3.org/2000/svg">
<g clip-path="url(#clip0_1153_14514)">
<path fill-rule="evenodd" clip-rule="evenodd" d="M77.1469 22.2079C77.0739 22.0519 77.0411 21.9734 77.0017 21.8985C75.946 19.8902 74.893 17.8819 73.8264 15.8736C73.7195 15.6722 73.733 15.5533 73.8793 15.3796C75.5593 13.4174 77.2175 11.4444 78.9001 9.49036C78.9596 9.42143 79.0125 9.34843 79.0347 9.22548C78.5462 9.35277 78.0577 9.47869 77.5665 9.60815C75.5392 10.1455 73.4956 10.6802 71.4873 11.2257C71.2986 11.2764 71.2132 11.2213 71.1182 11.0645C69.9674 9.14027 68.8086 7.21065 67.6443 5.31089C67.5849 5.21129 67.52 5.11467 67.393 5.03135C67.2996 5.54429 67.2052 6.05451 67.1135 6.56745C66.7905 8.37765 66.4675 10.177 66.1473 11.9953C66.1123 12.1905 66.0645 12.3861 66.0477 12.5815C66.0317 12.7683 65.9353 12.8372 65.7654 12.8909C63.3745 13.6427 60.9889 14.3999 58.6006 15.1571C58.4959 15.1899 58.393 15.2333 58.2804 15.3351C60.2344 16.1113 62.1885 16.8875 64.1696 17.6773C64.0975 17.7345 64.0497 17.779 63.9968 17.813C62.7755 18.6027 61.5515 19.3925 60.3329 20.1849C60.1867 20.2805 60.071 20.294 59.9069 20.2199C58.4467 19.5632 56.9758 18.9173 55.5103 18.2659C54.8535 17.9728 54.2646 17.5847 53.8059 17.0202C52.7665 15.7501 52.9727 14.3063 54.3568 13.4107C54.8101 13.1203 55.3257 12.9059 55.8386 12.7376C58.1808 11.975 60.5338 11.2395 62.8678 10.5013C63.0648 10.4386 63.1554 10.3507 63.1934 10.1376C63.5083 8.32473 63.8312 6.50095 64.1596 4.70975C64.3344 3.74087 64.4267 2.75028 64.8978 1.86011C65.0783 1.51815 65.294 1.18434 65.5546 0.899371C66.4882 -0.137356 67.7881 -0.175351 68.7842 0.810354C69.118 1.14417 69.4029 1.53498 69.6499 1.93936C70.7355 3.71156 71.8048 5.49462 72.8795 7.28583C73.0057 7.4967 73.1191 7.53904 73.3517 7.4777C75.9707 6.77479 78.5896 6.08274 81.2222 5.39068C81.765 5.24765 82.3105 5.19582 82.8668 5.29976C84.0745 5.52556 84.6038 6.44505 84.1939 7.61476C84.0086 8.14669 83.6864 8.59449 83.3255 9.02058C81.4963 11.1727 79.6617 13.3358 77.8433 15.4798C77.6938 15.6556 77.6908 15.781 77.7945 15.9791C78.8909 18.0444 79.9765 20.1043 81.0783 22.1941C81.3391 22.688 81.5397 23.2037 81.5451 23.7709C81.5579 25.0627 80.6115 26.1212 79.3278 26.3111C78.6087 26.4162 77.941 26.2625 77.2652 26.0547C75.6233 25.5472 73.9814 25.0478 72.3259 24.5511C72.1731 24.5055 72.1147 24.445 72.0873 24.2808C71.8984 23.122 71.6911 21.9658 71.4902 20.807C71.4851 20.7752 71.4946 20.7413 71.5 20.6702C73.3753 21.1886 75.2453 21.6988 77.1722 22.2334" fill="#E25A1C"/>
<path fill-rule="evenodd" clip-rule="evenodd" d="M73.8736 39.1688C72.3917 39.1667 70.9154 39.1593 69.4227 39.1659C69.2265 39.1659 69.116 39.1097 69.0075 38.943C67.2543 36.2725 65.4793 33.5966 63.7424 30.9369C63.6862 30.8522 63.6268 30.7705 63.5272 30.6275C63.15 33.5043 62.7781 36.3268 62.4063 39.1493H58.5254C58.571 38.7721 58.6114 38.4057 58.6592 38.042C59.0364 35.1381 59.4191 32.2613 59.799 29.3574C60.1627 26.5892 60.5237 23.8209 60.8928 21.0527C60.9033 20.971 60.9584 20.866 61.0252 20.8226C62.3605 19.9514 63.7012 19.0884 65.0418 18.2253C65.0611 18.2126 65.0885 18.2115 65.1575 18.1914C64.7531 21.2853 64.3514 24.3521 63.947 27.4188C63.963 27.4294 63.9788 27.4411 63.9948 27.4517C66.0981 25.1231 68.2014 22.7837 70.3454 20.4225C70.407 20.7808 70.461 21.0875 70.514 21.3941C70.6646 22.2707 70.8098 23.1528 70.9699 24.0294C71.0028 24.2063 70.955 24.3143 70.8375 24.4392C69.4778 25.8613 68.1235 27.2888 66.7666 28.7272C66.7071 28.7899 66.6509 28.8545 66.5831 28.9289C66.6265 28.9975 66.6637 29.0646 66.7071 29.1259C69.0438 32.4098 71.3751 35.6936 73.7091 38.9775C73.7514 39.0369 73.8128 39.0836 73.8649 39.1365V39.1884" fill="white"/>
<path fill-rule="evenodd" clip-rule="evenodd" d="M28.0185 30.4855C27.9591 30.1843 27.9167 29.7392 27.7821 29.3239C27.1308 27.3183 25.0763 26.2301 22.9513 26.7158C20.6146 27.2586 18.9347 29.096 18.7176 31.4924C18.5384 33.2565 19.4883 34.9662 21.2524 35.5904C22.6745 36.1034 24.0477 35.889 25.3233 35.1264C27.0087 34.1168 27.9205 32.616 28.0372 30.4855H28.0185ZM17.7598 37.9489C17.6453 38.8119 17.5351 39.6234 17.4287 40.4376C17.2868 41.5177 17.1437 42.6006 17.008 43.6943C16.9923 43.8205 16.954 43.8767 16.8183 43.8756C15.7518 43.8715 14.6852 43.8726 13.6159 43.8704C13.5915 43.8704 13.567 43.8577 13.5098 43.8408C13.5744 43.3306 13.637 42.8177 13.7038 42.3075C13.9391 40.5163 14.1733 38.7251 14.4122 36.9339C14.6863 34.8821 14.9007 32.8358 15.2508 30.8003C15.8695 27.1908 18.9417 24.0969 22.5241 23.3098C24.6057 22.8593 26.5951 23.068 28.4134 24.2407C30.2263 25.4077 31.263 27.1175 31.5073 29.2344C31.8438 32.2469 30.7338 34.7437 28.6034 36.8334C27.1975 38.1931 25.5095 39.0562 23.5826 39.3493C21.5824 39.6505 19.7016 39.3175 18.019 38.1388C17.9574 38.0954 17.8906 38.0574 17.7848 37.9907" fill="white"/>
<path fill-rule="evenodd" clip-rule="evenodd" d="M15.9657 20.8521C14.7715 21.7422 13.6181 22.5999 12.4647 23.4602C12.2782 23.1671 12.1119 22.874 11.9165 22.5999C11.4144 21.8969 10.7902 21.3732 9.88372 21.3107C9.12924 21.2575 8.48332 21.5056 7.97039 22.0625C7.51173 22.5591 7.45203 23.2675 7.88029 23.8293C8.35251 24.4481 8.86816 25.0343 9.39738 25.6069C10.274 26.5568 11.1886 27.4687 12.057 28.4294C12.8468 29.2979 13.4792 30.2695 13.6746 31.469C13.9069 32.8803 13.6249 34.2101 12.9581 35.4585C11.7232 37.7518 9.78276 39.0952 7.20451 39.5023C6.07008 39.6855 4.94108 39.6497 3.83922 39.324C2.37098 38.8925 1.34782 37.929 0.691045 36.5829C0.459003 36.1025 0.281239 35.595 0.0722656 35.0794C1.35596 34.3928 2.60709 33.7224 3.87179 33.0466C3.91521 33.1517 3.94697 33.2396 3.9874 33.3235C4.2037 33.755 4.38092 34.2136 4.64689 34.6126C5.44208 35.7932 6.72306 36.1514 8.01218 35.5679C8.346 35.4173 8.66896 35.2069 8.94307 34.9627C9.77896 34.2191 9.93637 33.1823 9.31759 32.2487C8.96206 31.7114 8.51698 31.2283 8.08275 30.7479C7.04602 29.5972 5.96587 28.4818 4.96171 27.3012C4.26423 26.4925 3.78928 25.5534 3.6373 24.4787C3.47311 23.2954 3.7095 22.1827 4.32393 21.1948C5.85188 18.7224 8.06918 17.4496 11.0002 17.531C12.6747 17.5915 14.0127 18.3751 15.044 19.6777C15.3507 20.0631 15.6384 20.4621 15.9505 20.88" fill="white"/>
<path fill-rule="evenodd" clip-rule="evenodd" d="M44.2997 34.0114C44.1045 35.5014 43.9197 36.9153 43.7297 38.3266C43.7191 38.3988 43.663 38.4962 43.6024 38.5239C40.6985 39.8646 36.899 39.6773 34.5379 36.9796C33.2623 35.5304 32.7277 33.8043 32.8064 31.9046C32.9917 27.4808 36.6602 23.5999 41.0568 23.0571C43.6214 22.7423 45.8604 23.4343 47.5974 25.4291C48.7807 26.7861 49.3289 28.4144 49.2474 30.2056C49.1945 31.3889 49.0089 32.5641 48.8621 33.7338C48.6531 35.4001 48.4251 37.0719 48.2053 38.7274C48.1969 38.7855 48.1852 38.8449 48.1714 38.9204H44.7247C44.7703 38.5377 44.8126 38.1632 44.8614 37.7887C45.1117 35.8645 45.3879 33.9349 45.6078 32.008C45.7446 30.8084 45.6585 29.617 45.1084 28.507C44.5249 27.3264 43.5479 26.6995 42.2588 26.5638C39.5937 26.2815 37.048 28.1325 36.5052 30.7433C36.1307 32.4748 36.7215 34.1357 38.101 35.0584C39.4444 35.9513 40.8692 35.954 42.3348 35.376C43.0784 35.0829 43.708 34.6161 44.3105 33.9891" fill="white"/>
<path fill-rule="evenodd" clip-rule="evenodd" d="M58.9522 23.512C58.7942 24.7115 58.6374 25.8921 58.48 27.0944C57.7472 27.0944 57.0307 27.0903 56.3142 27.0955C55.7335 27.0998 55.2042 27.4754 55.0278 28.0182C54.96 28.2302 54.9347 28.4579 54.9049 28.6804C54.5412 31.4486 54.1803 34.1897 53.8193 36.9308C53.7281 37.6256 53.6402 38.3203 53.549 39.026H49.9395C50.0062 38.4967 50.0697 37.9838 50.1365 37.4709C50.3707 35.6851 50.606 33.8885 50.8421 32.1244C51.0467 30.5802 51.2302 29.0305 51.4717 27.4836C51.7947 25.421 53.8465 23.5755 55.9226 23.4941C56.9159 23.4506 57.9119 23.4867 58.9351 23.4867" fill="white"/>
<path d="M78.2325 39.1687V37.6489H78.2241L77.6271 39.1687H77.4374L76.8403 37.6489H76.8308V39.1687H76.5323V37.3477H76.9963L77.5391 38.7318L78.0738 37.3477H78.5352V39.1687H78.2325ZM75.5892 37.5919V39.1687H75.2906V37.5919H74.7207V37.3479H76.1618V37.5919H75.5919" fill="white"/>
<path d="M20.7668 18.3008H21.6597L21.4485 16.9492L20.7668 18.3008ZM21.8008 19.1747H20.3163L19.844 20.1001H18.791L21.1114 15.7578H22.1265L22.9162 20.1001H21.9419L21.8019 19.1747" fill="white"/>
<path d="M27.124 16.6438H26.5948L26.4168 17.6452H26.946C27.2662 17.6452 27.5186 17.4354 27.5186 17.04C27.5186 16.7781 27.3596 16.6438 27.1224 16.6438H27.124ZM25.843 15.7699H27.2326C27.9599 15.7699 28.4674 16.2041 28.4674 16.9477C28.4674 17.8867 27.8052 18.5164 26.8608 18.5164H26.261L25.9787 20.104H25.0723L25.8376 15.7617" fill="white"/>
<path d="M31.5351 18.3008H32.428L32.2171 16.9492L31.5351 18.3008ZM32.5664 19.1747H31.0819L30.6097 20.1001H29.5566L31.8771 15.7578H32.8921L33.6818 20.1001H32.7075L32.5675 19.1747" fill="white"/>
<path d="M38.3282 19.9587C38.0215 20.0987 37.685 20.1823 37.3457 20.1823C36.1977 20.1823 35.4785 19.322 35.4785 18.2446C35.4785 16.8659 36.6374 15.707 38.0161 15.707C38.3607 15.707 38.6728 15.7898 38.9279 15.9296L38.8007 16.969C38.6099 16.7581 38.3013 16.6108 37.9213 16.6108C37.1316 16.6108 36.4287 17.3245 36.4287 18.1523C36.4287 18.7819 36.8249 19.2759 37.4491 19.2759C37.8318 19.2759 38.2009 19.1285 38.4506 18.9258L38.3298 19.9571" fill="white"/>
<path d="M44.0204 18.3551H42.1342L41.8276 20.1001H40.9238L41.6892 15.7578H42.5956L42.2917 17.473H44.1779L44.4845 15.7578H45.391L44.6256 20.1001H43.7192L44.0232 18.3551" fill="white"/>
<path d="M47.291 20.0923L48.0564 15.75H50.4609L50.3081 16.6239H48.81L48.6572 17.4652H50.0332L49.8804 18.3391H48.5044L48.3516 19.213H49.8497L49.6969 20.0869H47.2924" fill="white"/>
</g>
<defs>
<clipPath id="clip0_1153_14514">
<rect width="84.4792" height="43.872" fill="white" transform="translate(0.0644531 0.0878906)"/>
</clipPath>
</defs>
</svg>
