<svg width="100" height="43" viewBox="0 0 100 43" fill="none" xmlns="http://www.w3.org/2000/svg">
<mask id="mask0_1153_14634" style="mask-type:luminance" maskUnits="userSpaceOnUse" x="0" y="0" width="100" height="43">
<path d="M99.2407 0.916016H0.166016V42.8286H99.2407V0.916016Z" fill="white"/>
</mask>
<g mask="url(#mask0_1153_14634)">
<path fill-rule="evenodd" clip-rule="evenodd" d="M0.166016 6.61523V37.047C0.166016 40.2333 7.15276 42.7458 15.8832 42.7458V6.61523H0.166016Z" fill="#3E3E3E"/>
<path fill-rule="evenodd" clip-rule="evenodd" d="M15.6904 42.829H15.9401C24.5913 42.829 31.6573 40.2253 31.6573 37.1302V6.61914H15.6904V42.829Z" fill="#A0A1A2"/>
<path fill-rule="evenodd" clip-rule="evenodd" d="M31.6004 6.61479C31.6004 9.80104 24.6137 12.3136 15.8832 12.3136C7.15276 12.3136 0.166016 9.80104 0.166016 6.61479C0.166016 3.42855 7.23202 0.916016 15.8832 0.916016C24.5344 0.916016 31.6004 3.51177 31.6004 6.61479Z" fill="white"/>
<path fill-rule="evenodd" clip-rule="evenodd" d="M28.3621 6.28063C28.3621 8.37309 22.7862 10.0494 15.8827 10.0494C8.97913 10.0494 3.41113 8.37309 3.41113 6.28063C3.41113 4.18818 8.98706 2.50391 15.8827 2.50391C22.7783 2.50391 28.3621 4.18025 28.3621 6.28063Z" fill="#7FBA00"/>
<path fill-rule="evenodd" clip-rule="evenodd" d="M25.7822 8.62862C27.4467 7.95491 28.3621 7.20194 28.3621 6.27857C28.3621 4.18611 22.7862 2.50977 15.8827 2.50977C8.97913 2.50977 3.41113 4.18611 3.41113 6.27857C3.41113 7.12268 4.40981 7.95491 5.99104 8.62862C8.23013 7.70524 11.8087 7.11872 15.8827 7.11872C19.9566 7.11872 23.452 7.70128 25.7822 8.62862Z" fill="#B8D432"/>
<path fill-rule="evenodd" clip-rule="evenodd" d="M15.6336 42.8289V27.7378C13.3033 27.7378 11.3099 26.4816 10.1488 24.6309C8.9797 26.4776 7.0735 27.7378 4.74327 27.7378C2.9084 27.7378 1.32717 26.9849 0.166016 25.7286V37.1301C0.166016 40.2292 7.06954 42.7417 15.6336 42.8289Z" fill="#3999C6"/>
<path fill-rule="evenodd" clip-rule="evenodd" d="M26.8383 27.7417C24.4724 27.7417 22.3641 26.4855 21.1792 24.6348C20.0814 26.4815 18.0563 27.6585 15.6904 27.7417V42.8328C24.4724 42.8328 31.6494 40.2291 31.6494 37.134V25.6453C30.4724 26.9016 28.7802 27.7457 26.8383 27.7457V27.7417Z" fill="#59B4D9"/>
<path d="M48.523 16.765H42.7608L41.556 20.2286H38.8691L44.4887 5.35156H46.807L52.4384 20.2286H49.7396L48.523 16.765ZM43.486 14.6804H47.7978L45.6419 8.51006L43.486 14.6804Z" fill="white"/>
<path d="M56.6526 18.2451H62.5376V20.2266H53.5654V18.6018L59.1731 11.1751H53.6645V9.17383H62.3197V10.7471L56.6486 18.2451H56.6526Z" fill="white"/>
<path d="M71.2246 19.1467C70.4954 20.0067 69.4611 20.4347 68.1176 20.4347C66.9168 20.4347 66.0133 20.082 65.3951 19.3805C64.7768 18.6791 64.4717 17.6646 64.4717 16.337V9.17188H66.9565V16.3013C66.9565 17.7042 67.539 18.4056 68.7042 18.4056C69.8693 18.4056 70.7253 17.9737 71.1454 17.1097V9.17188H73.6262V20.2247H71.288L71.2286 19.1428L71.2246 19.1467Z" fill="white"/>
<path d="M81.9354 11.4397C81.6105 11.3842 81.2696 11.3565 80.9249 11.3565C79.7875 11.3565 79.0226 11.7924 78.6263 12.6643V20.2256H76.1455V9.16891H78.5154L78.5748 10.4054C79.1732 9.44632 80.0055 8.9668 81.0675 8.9668C81.4202 8.9668 81.7135 9.01435 81.9473 9.10946L81.9354 11.4397Z" fill="white"/>
<path d="M88.1822 20.4278C86.6089 20.4278 85.3328 19.9324 84.3579 18.9416C83.379 17.9509 82.8916 16.6312 82.8916 14.9826V14.6775C82.8916 13.5758 83.1056 12.589 83.5296 11.7211C83.9537 10.8532 84.5521 10.1755 85.3209 9.69202C86.0897 9.20854 86.9497 8.9668 87.8969 8.9668C89.4028 8.9668 90.5639 9.44632 91.3843 10.4054C92.2046 11.3644 92.6168 12.7237 92.6168 14.4833V15.4859H85.3922C85.4675 16.3974 85.7727 17.1226 86.3077 17.6537C86.8427 18.1847 87.5164 18.4502 88.3249 18.4502C89.4622 18.4502 90.3896 17.9905 91.1029 17.0711L92.4424 18.3472C91.9985 19.009 91.4081 19.5202 90.6709 19.8848C89.9338 20.2494 89.1016 20.4317 88.1822 20.4317V20.4278ZM87.885 10.9562C87.2033 10.9562 86.6525 11.194 86.2364 11.6735C85.8202 12.153 85.5508 12.8149 85.4358 13.6669H90.1676V13.4846C90.1122 12.6524 89.8902 12.0262 89.5019 11.5982C89.1135 11.1742 88.5745 10.9602 87.8889 10.9602L87.885 10.9562Z" fill="white"/>
<path d="M39.0489 38.1832V28.252H41.8507C42.7147 28.252 43.4795 28.4422 44.1413 28.8266C44.8031 29.211 45.3183 29.7539 45.679 30.4554C46.0396 31.1608 46.2219 31.9692 46.2298 32.8847V33.5188C46.2298 34.454 46.0475 35.2783 45.6869 35.9798C45.3263 36.6852 44.8111 37.2281 44.1374 37.6046C43.4676 37.9811 42.6869 38.1753 41.7952 38.1832H39.0449H39.0489ZM40.3606 29.322V37.1132H41.7398C42.7503 37.1132 43.535 36.8001 44.0977 36.17C44.6605 35.5399 44.9418 34.6482 44.9418 33.4871V32.9085C44.9418 31.779 44.6763 30.9032 44.1453 30.277C43.6142 29.6509 42.8652 29.3339 41.8903 29.3259H40.3606V29.322Z" fill="white"/>
<path d="M52.5702 38.1838C52.4989 38.0372 52.4394 37.7796 52.3919 37.4071C51.8054 38.0174 51.1039 38.3225 50.2915 38.3225C49.5623 38.3225 48.9679 38.1164 48.5002 37.7043C48.0326 37.2921 47.8027 36.773 47.8027 36.1389C47.8027 35.3701 48.096 34.7717 48.6786 34.3476C49.2611 33.9236 50.0854 33.7096 51.1435 33.7096H52.3721V33.131C52.3721 32.6911 52.2413 32.3384 51.9758 32.0768C51.7102 31.8153 51.3219 31.6845 50.8106 31.6845C50.3589 31.6845 49.9824 31.7994 49.6772 32.0253C49.3721 32.2512 49.2215 32.5286 49.2215 32.8496H47.9533C47.9533 32.4811 48.0841 32.1244 48.3457 31.7836C48.6072 31.4388 48.9639 31.1693 49.4117 30.9672C49.8595 30.7691 50.3509 30.666 50.8899 30.666C51.7419 30.666 52.4077 30.88 52.8872 31.3041C53.3707 31.7281 53.6204 32.3146 53.6363 33.0597V36.4559C53.6363 37.1336 53.7234 37.6726 53.8938 38.0728V38.1838H52.5702ZM50.4778 37.2208C50.8741 37.2208 51.2505 37.1178 51.6032 36.9156C51.9559 36.7135 52.2135 36.4441 52.376 36.1191V34.6052H51.3853C49.8397 34.6052 49.0669 35.057 49.0669 35.9645C49.0669 36.3608 49.1977 36.6699 49.4632 36.8919C49.7287 37.1138 50.0656 37.2248 50.4778 37.2248V37.2208Z" fill="white"/>
<path d="M57.3244 29.0137V30.801H58.7036V31.7759H57.3244V36.3611C57.3244 36.6583 57.3839 36.8802 57.5067 37.0268C57.6296 37.1735 57.8396 37.2488 58.1329 37.2488C58.2795 37.2488 58.4777 37.221 58.7313 37.1655V38.184C58.3984 38.2752 58.0774 38.3188 57.7643 38.3188C57.2016 38.3188 56.7736 38.1484 56.4883 37.8075C56.2029 37.4667 56.0602 36.9832 56.0602 36.3531V31.7759H54.7168V30.801H56.0602V29.0137H57.3205H57.3244Z" fill="white"/>
<path d="M64.7352 38.1838C64.6639 38.0372 64.6045 37.7796 64.5569 37.4071C63.9704 38.0174 63.2689 38.3225 62.4565 38.3225C61.7273 38.3225 61.1329 38.1164 60.6653 37.7043C60.1976 37.2921 59.9678 36.773 59.9678 36.1389C59.9678 35.3701 60.261 34.7717 60.8436 34.3476C61.4262 33.9236 62.2505 33.7096 63.3086 33.7096H64.5371V33.131C64.5371 32.6911 64.4063 32.3384 64.1408 32.0768C63.8753 31.8153 63.4869 31.6845 62.9757 31.6845C62.5239 31.6845 62.1474 31.7994 61.8423 32.0253C61.5371 32.2512 61.3865 32.5286 61.3865 32.8496H60.1184C60.1184 32.4811 60.2491 32.1244 60.5107 31.7836C60.7723 31.4388 61.1289 31.1693 61.5767 30.9672C62.0246 30.7691 62.516 30.666 63.0549 30.666C63.907 30.666 64.5728 30.88 65.0523 31.3041C65.5358 31.7281 65.7854 32.3146 65.8013 33.0597V36.4559C65.8013 37.1336 65.8885 37.6726 66.0589 38.0728V38.1838H64.7352ZM62.6428 37.2208C63.0391 37.2208 63.4156 37.1178 63.7683 36.9156C64.121 36.7135 64.3786 36.4441 64.5411 36.1191V34.6052H63.5503C62.0048 34.6052 61.232 35.057 61.232 35.9645C61.232 36.3608 61.3627 36.6699 61.6283 36.8919C61.8938 37.1138 62.2306 37.2248 62.6428 37.2248V37.2208Z" fill="white"/>
<path d="M72.7552 37.1132H77.4632V38.1832H71.4395V28.252H72.7552V37.1132Z" fill="white"/>
<path d="M83.3095 38.1838C83.2381 38.0372 83.1787 37.7796 83.1311 37.4071C82.5446 38.0174 81.8432 38.3225 81.0308 38.3225C80.3016 38.3225 79.7071 38.1164 79.2395 37.7043C78.7718 37.2921 78.542 36.773 78.542 36.1389C78.542 35.3701 78.8353 34.7717 79.4178 34.3476C80.0004 33.9236 80.8247 33.7096 81.8828 33.7096H83.1113V33.131C83.1113 32.6911 82.9805 32.3384 82.715 32.0768C82.4495 31.8153 82.0611 31.6845 81.5499 31.6845C81.0981 31.6845 80.7216 31.7994 80.4165 32.0253C80.1113 32.2512 79.9607 32.5286 79.9607 32.8496H78.6926C78.6926 32.4811 78.8234 32.1244 79.0849 31.7836C79.3465 31.4388 79.7031 31.1693 80.151 30.9672C80.5988 30.7691 81.0902 30.666 81.6292 30.666C82.4812 30.666 83.147 30.88 83.6265 31.3041C84.11 31.7281 84.3597 32.3146 84.3755 33.0597V36.4559C84.3755 37.1336 84.4627 37.6726 84.6331 38.0728V38.1838H83.3095ZM81.217 37.2208C81.6133 37.2208 81.9898 37.1178 82.3425 36.9156C82.6952 36.7135 82.9528 36.4441 83.1153 36.1191V34.6052H82.1245C80.579 34.6052 79.8062 35.057 79.8062 35.9645C79.8062 36.3608 79.937 36.6699 80.2025 36.8919C80.468 37.1138 80.8049 37.2248 81.217 37.2248V37.2208Z" fill="white"/>
<path d="M88.4112 34.7671L87.6186 35.5914V38.1832H86.3584V27.7051H87.6186V34.0419L88.2923 33.2295L90.5909 30.8002H92.1245L89.2514 33.8834L92.4574 38.1793H90.9753L88.4033 34.7632L88.4112 34.7671Z" fill="white"/>
<path d="M96.361 38.3186C95.3623 38.3186 94.5459 37.9897 93.9198 37.3318C93.2936 36.674 92.9766 35.7942 92.9766 34.6964V34.4626C92.9766 33.7295 93.1153 33.0756 93.3966 32.5009C93.678 31.9263 94.0664 31.4745 94.5697 31.1496C95.073 30.8246 95.6159 30.6621 96.2024 30.6621C97.1615 30.6621 97.9065 30.9791 98.4415 31.6093C98.9726 32.2433 99.2381 33.1469 99.2381 34.3239V34.851H94.2368C94.2566 35.5802 94.4666 36.1667 94.8748 36.6145C95.283 37.0623 95.7982 37.2882 96.4283 37.2882C96.8761 37.2882 97.2526 37.1971 97.5617 37.0148C97.8709 36.8325 98.1403 36.5907 98.3742 36.2935L99.1469 36.8919C98.5287 37.843 97.6014 38.3186 96.3649 38.3186H96.361ZM96.2024 31.7004C95.6952 31.7004 95.2672 31.8867 94.9184 32.2552C94.5736 32.6278 94.3596 33.1469 94.2764 33.8127H97.9739V33.7176C97.9382 33.0756 97.7638 32.5802 97.4547 32.2275C97.1456 31.8748 96.7255 31.7004 96.1985 31.7004H96.2024Z" fill="white"/>
</g>
</svg>
