<svg width="125" height="41" viewBox="0 0 125 41" fill="none" xmlns="http://www.w3.org/2000/svg">
<g clip-path="url(#clip0_1153_14529)">
<path d="M7.11518 34.285C5.47173 34.285 3.95339 33.6214 3.195 32.9888V39.6279H0.539062V18.2557H2.78355L3.00501 19.8366C3.73232 18.8245 5.43949 17.9395 7.30517 17.9395C11.9204 17.9395 13.1217 21.6704 13.1217 26.0965C13.1217 31.0284 11.4779 34.285 7.11518 34.285ZM3.195 30.9021C3.98564 31.5342 5.24989 32.1349 6.7356 32.1349C9.8022 32.1349 10.4662 29.7326 10.4662 26.0654C10.4662 22.3977 9.89739 20.0895 6.92558 20.0895C5.34469 20.0895 4.08083 20.8487 3.195 21.639V30.9021Z" fill="white"/>
<path d="M24.3841 20.4696C22.614 20.8174 20.8116 21.418 19.4837 22.1139V33.9374H16.8281V18.2566H19.0097L19.2937 20.09C20.2425 19.1421 21.9815 18.2251 24.0364 18.0352L24.3841 20.4696Z" fill="white"/>
<path d="M28.5466 27.2679C28.7051 30.5874 29.5268 32.1683 32.7201 32.1683C34.3954 32.1683 36.1344 31.7568 37.3357 31.2832L37.7468 33.3059C36.4506 33.8432 34.395 34.255 32.6882 34.255C27.029 34.255 25.8906 30.3974 25.8906 26.0032C25.8906 21.4828 27.3763 17.9414 32.1823 17.9414C36.4503 17.9414 38.2208 20.9451 38.2208 24.7075V27.2683L28.5466 27.2679ZM28.5466 25.1819H35.66V24.6123C35.66 21.7035 34.7435 19.9334 32.1505 19.9334C29.2109 19.9334 28.5784 22.0516 28.5466 25.1819Z" fill="white"/>
<path d="M45.7528 34.2554C44.1719 34.2554 42.1485 33.9073 40.7891 33.2115L41.2949 31.1255C42.4962 31.6943 44.2352 32.1057 45.6265 32.1057C47.7125 32.1057 48.8198 31.5362 48.8198 29.7661C48.8198 28.0896 47.6814 27.5845 45.5632 27.0783C42.1174 26.2565 40.8213 25.0549 40.8213 22.3678C40.8213 19.4271 42.4337 17.9414 46.1005 17.9414C47.6177 17.9414 49.2309 18.2262 50.337 18.7313L49.8945 20.8503C48.9146 20.4388 47.3967 20.0911 46.1639 20.0911C44.1719 20.0911 43.4131 20.6284 43.4131 22.2097C43.4131 23.8535 44.1719 24.1698 46.4164 24.7701C49.483 25.5922 51.4116 26.572 51.4116 29.5761C51.4116 32.8634 49.0086 34.2554 45.7528 34.2554Z" fill="white"/>
<path d="M62.7295 33.7787C62.0656 34.0313 60.5161 34.2531 59.5052 34.2531C56.8178 34.2531 55.6798 32.7666 55.6798 30.3322V20.4058H52.9609V18.2554H55.6798V14.43L58.3354 14.0508V18.2554H62.7929L62.5718 20.4058H58.3354V30.2067C58.3354 31.6605 58.6831 32.1038 60.1373 32.1038C60.7698 32.1038 61.6864 31.9768 62.5085 31.7868L62.7295 33.7787Z" fill="white"/>
<path d="M71.5142 34.2554C66.9615 34.2554 64.9062 30.8411 64.9062 26.0984C64.9062 21.3561 66.9615 17.9414 71.5142 17.9414C76.0665 17.9414 78.1218 21.3557 78.1218 26.0984C78.1218 30.8407 76.0665 34.2554 71.5142 34.2554ZM71.5142 20.0911C68.2262 20.0911 67.5618 22.7781 67.5618 26.0984C67.5618 29.418 68.2262 32.1057 71.5142 32.1057C74.8019 32.1057 75.4663 29.418 75.4663 26.0984C75.4663 22.7781 74.8019 20.0911 71.5142 20.0911Z" fill="white"/>
<path d="M107.467 4.25912C108.17 3.55618 108.17 2.41648 107.467 1.71354C106.764 1.01059 105.624 1.01059 104.921 1.71353C104.218 2.41648 104.218 3.55618 104.921 4.25912C105.624 4.96207 106.764 4.96207 107.467 4.25912Z" fill="#5B87DA"/>
<path d="M112.562 9.3515C113.343 8.57057 113.343 7.30444 112.562 6.5235C111.781 5.74257 110.515 5.74256 109.734 6.5235C108.953 7.30443 108.953 8.57057 109.734 9.3515C110.515 10.1324 111.781 10.1324 112.562 9.3515Z" fill="#5B87DA"/>
<path d="M117.642 14.4394C118.501 13.5805 118.501 12.1881 117.642 11.3293C116.783 10.4705 115.391 10.4706 114.532 11.3296C113.673 12.1885 113.673 13.5809 114.531 14.4397C115.39 15.2985 116.783 15.2984 117.642 14.4394Z" fill="#5B87DA"/>
<path d="M122.729 19.524C123.666 18.5871 123.666 17.0682 122.73 16.1314C121.793 15.1947 120.274 15.1948 119.337 16.1317C118.4 17.0686 118.4 18.5875 119.337 19.5243C120.274 20.461 121.792 20.4609 122.729 19.524Z" fill="#5B87DA"/>
<path d="M97.4338 4.11791C98.0588 3.49296 98.0588 2.4797 97.4338 1.85474C96.8089 1.22978 95.7956 1.22978 95.1707 1.85474C94.5457 2.4797 94.5457 3.49296 95.1706 4.11792C95.7956 4.74287 96.8089 4.74287 97.4338 4.11791Z" fill="#1EDCFF"/>
<path d="M102.514 9.2103C103.217 8.50735 103.217 7.36765 102.514 6.66471C101.811 5.96176 100.671 5.96176 99.9681 6.66471C99.2652 7.36765 99.2652 8.50735 99.9681 9.2103C100.671 9.91324 101.811 9.91324 102.514 9.2103Z" fill="#1EDCFF"/>
<path d="M107.609 14.2929C108.39 13.512 108.39 12.2458 107.609 11.4649C106.828 10.684 105.562 10.684 104.781 11.4649C104 12.2458 104 13.512 104.781 14.2929C105.562 15.0738 106.828 15.0738 107.609 14.2929Z" fill="#1EDCFF"/>
<path d="M112.689 19.3814C113.548 18.5225 113.548 17.1299 112.689 16.271C111.83 15.412 110.438 15.412 109.579 16.271C108.72 17.1299 108.72 18.5225 109.579 19.3814C110.438 20.2403 111.83 20.2403 112.689 19.3814Z" fill="#1EDCFF"/>
<path d="M117.792 24.4732C118.729 23.5363 118.729 22.0174 117.792 21.0806C116.855 20.1439 115.336 20.144 114.4 21.0809C113.463 22.0178 113.463 23.5367 114.399 24.4735C115.336 25.4102 116.855 25.4101 117.792 24.4732Z" fill="#1EDCFF"/>
<path d="M87.4086 3.98452C87.9556 3.43755 87.9556 2.55074 87.4086 2.00376C86.8617 1.45679 85.9748 1.45679 85.4279 2.00376C84.8809 2.55073 84.8809 3.43755 85.4279 3.98452C85.9749 4.53149 86.8617 4.53149 87.4086 3.98452Z" fill="white"/>
<path d="M92.4963 9.06518C93.1213 8.44022 93.1213 7.42696 92.4963 6.80201C91.8714 6.17705 90.8581 6.17705 90.2332 6.80201C89.6082 7.42696 89.6082 8.44022 90.2331 9.06518C90.8581 9.69014 91.8714 9.69014 92.4963 9.06518Z" fill="white"/>
<path d="M97.5762 14.1576C98.2791 13.4546 98.2791 12.3149 97.5762 11.612C96.8732 10.909 95.7336 10.909 95.0306 11.612C94.3277 12.3149 94.3277 13.4546 95.0306 14.1576C95.7336 14.8605 96.8733 14.8605 97.5762 14.1576Z" fill="white"/>
<path d="M102.664 19.2441C103.445 18.4631 103.445 17.197 102.664 16.4161C101.883 15.6351 100.617 15.6351 99.8359 16.4161C99.0549 17.197 99.0549 18.4631 99.8359 19.2441C100.617 20.025 101.883 20.025 102.664 19.2441Z" fill="white"/>
<path d="M107.751 24.334C108.61 23.475 108.61 22.0826 107.751 21.2238C106.893 20.365 105.5 20.3652 104.641 21.2241C103.782 22.083 103.782 23.4755 104.641 24.3342C105.5 25.193 106.892 25.1929 107.751 24.334Z" fill="white"/>
<path d="M112.839 29.4127C113.776 28.4758 113.776 26.9569 112.839 26.0201C111.902 25.0833 110.383 25.0835 109.446 26.0204C108.51 26.9573 108.509 28.4762 109.446 29.4129C110.383 30.3497 111.902 30.3496 112.839 29.4127Z" fill="white"/>
<path d="M97.4338 23.9089C98.0588 23.284 98.0588 22.2707 97.4338 21.6458C96.8089 21.0208 95.7956 21.0208 95.1706 21.6458C94.5457 22.2707 94.5457 23.284 95.1706 23.9089C95.7956 24.5339 96.8089 24.5339 97.4338 23.9089Z" fill="#5B87DA"/>
<path d="M92.4963 28.8523C93.1213 28.2273 93.1213 27.2141 92.4963 26.5891C91.8714 25.9642 90.8581 25.9642 90.2332 26.5891C89.6082 27.2141 89.6082 28.2273 90.2332 28.8523C90.8581 29.4772 91.8714 29.4772 92.4963 28.8523Z" fill="#5B87DA"/>
<path d="M87.5432 33.8035C88.1682 33.1785 88.1682 32.1652 87.5432 31.5403C86.9182 30.9153 85.905 30.9153 85.28 31.5403C84.6551 32.1652 84.6551 33.1785 85.28 33.8035C85.905 34.4284 86.9182 34.4284 87.5432 33.8035Z" fill="#5B87DA"/>
<path d="M97.4338 33.7996C98.0588 33.1746 98.0588 32.1613 97.4338 31.5364C96.8089 30.9114 95.7956 30.9114 95.1706 31.5364C94.5457 32.1613 94.5457 33.1746 95.1706 33.7996C95.7956 34.4245 96.8089 34.4245 97.4338 33.7996Z" fill="#5B87DA"/>
<path d="M107.324 33.8035C107.949 33.1785 107.949 32.1653 107.324 31.5403C106.699 30.9153 105.686 30.9153 105.061 31.5403C104.436 32.1652 104.436 33.1785 105.061 33.8035C105.686 34.4284 106.699 34.4284 107.324 33.8035Z" fill="#5B87DA"/>
<path d="M102.371 28.8523C102.996 28.2273 102.996 27.2141 102.371 26.5891C101.746 25.9642 100.733 25.9642 100.108 26.5891C99.4832 27.2141 99.4832 28.2273 100.108 28.8523C100.733 29.4772 101.746 29.4773 102.371 28.8523Z" fill="#5B87DA"/>
</g>
<defs>
<clipPath id="clip0_1153_14529">
<rect width="124.327" height="39.8884" fill="white" transform="translate(0.140625 0.429688)"/>
</clipPath>
</defs>
</svg>
