<svg width="81" height="50" viewBox="0 0 81 50" fill="none" xmlns="http://www.w3.org/2000/svg">
<g clip-path="url(#clip0_1153_14472)">
<path d="M23.0009 18.3671C23.0009 19.3489 23.1071 20.145 23.2928 20.7288C23.5051 21.3125 23.7705 21.9494 24.142 22.6393C24.2747 22.8516 24.3277 23.0639 24.3277 23.2497C24.3277 23.515 24.1685 23.7804 23.8235 24.0457L22.1518 25.1603C21.913 25.3195 21.6741 25.3991 21.4618 25.3991C21.1965 25.3991 20.9311 25.2664 20.6658 25.0276C20.2943 24.6295 19.9758 24.205 19.7105 23.7804C19.4451 23.3293 19.1798 22.8251 18.8879 22.2148C16.8181 24.6561 14.2175 25.8767 11.0863 25.8767C8.85726 25.8767 7.07935 25.2399 5.77909 23.9661C4.47883 22.6924 3.81543 20.9941 3.81543 18.8712C3.81543 16.6157 4.61151 14.7847 6.2302 13.4048C7.8489 12.025 9.99831 11.335 12.7315 11.335C13.6337 11.335 14.5625 11.4146 15.5443 11.5473C16.5262 11.68 17.5345 11.8923 18.596 12.1311V10.194C18.596 8.17724 18.1714 6.77083 17.3488 5.94822C16.4996 5.1256 15.0667 4.72756 13.0234 4.72756C12.0947 4.72756 11.1394 4.83371 10.1575 5.07253C9.17569 5.31135 8.2204 5.60325 7.29164 5.97475C6.86707 6.1605 6.54863 6.26665 6.36288 6.31972C6.17713 6.37279 6.04445 6.39933 5.93831 6.39933C5.5668 6.39933 5.38105 6.13397 5.38105 5.57671V4.27645C5.38105 3.85188 5.43412 3.53344 5.5668 3.34769C5.69948 3.16194 5.93831 2.97619 6.30981 2.79044C7.23857 2.31279 8.35308 1.91475 9.65334 1.59632C10.9536 1.25135 12.3335 1.09213 13.793 1.09213C16.9507 1.09213 19.2594 1.80861 20.7454 3.24155C22.2049 4.67449 22.9479 6.85044 22.9479 9.7694V18.3671H23.0009ZM12.2273 22.4005C13.103 22.4005 14.0052 22.2413 14.9605 21.9229C15.9158 21.6044 16.765 21.0206 17.4815 20.2246C17.906 19.7204 18.2245 19.1631 18.3837 18.5263C18.5429 17.8894 18.649 17.1199 18.649 16.2176V15.1031C17.8795 14.9174 17.0569 14.7582 16.2077 14.652C15.3586 14.5459 14.536 14.4928 13.7133 14.4928C11.9354 14.4928 10.6352 14.8378 9.75949 15.5542C8.8838 16.2707 8.45922 17.2791 8.45922 18.6059C8.45922 19.8531 8.77766 20.7818 9.44105 21.4187C10.0779 22.0821 11.0067 22.4005 12.2273 22.4005ZM33.5357 25.2664C33.0581 25.2664 32.7396 25.1868 32.5273 25.001C32.3151 24.8418 32.1293 24.4703 31.9701 23.9661L25.7341 3.45384C25.5749 2.92312 25.4953 2.57815 25.4953 2.3924C25.4953 1.96782 25.7076 1.729 26.1322 1.729H28.7327C29.2369 1.729 29.5819 1.80861 29.7676 1.99436C29.9799 2.15357 30.1391 2.52508 30.2983 3.02926L34.7564 20.5961L38.896 3.02926C39.0287 2.49854 39.1879 2.15357 39.4002 1.99436C39.6124 1.83514 39.984 1.729 40.4616 1.729H42.5845C43.0887 1.729 43.4336 1.80861 43.6459 1.99436C43.8582 2.15357 44.044 2.52508 44.1501 3.02926L48.3428 20.8084L52.9335 3.02926C53.0927 2.49854 53.2785 2.15357 53.4642 1.99436C53.6765 1.83514 54.0215 1.729 54.4991 1.729H56.967C57.3915 1.729 57.6304 1.94129 57.6304 2.3924C57.6304 2.52508 57.6038 2.65776 57.5773 2.81697C57.5508 2.97619 57.4977 3.18848 57.3915 3.48037L50.9964 23.9927C50.8372 24.5234 50.6514 24.8684 50.4391 25.0276C50.2268 25.1868 49.8819 25.2929 49.4308 25.2929H47.1487C46.6445 25.2929 46.2995 25.2133 46.0872 25.0276C45.8749 24.8418 45.6892 24.4969 45.583 23.9661L41.47 6.85044L37.3834 23.9396C37.2508 24.4703 37.0915 24.8153 36.8792 25.001C36.667 25.1868 36.2955 25.2664 35.8178 25.2664H33.5357ZM67.6344 25.9829C66.2546 25.9829 64.8747 25.8237 63.5479 25.5052C62.2211 25.1868 61.1862 24.8418 60.4963 24.4438C60.0717 24.205 59.7798 23.9396 59.6736 23.7008C59.5675 23.462 59.5144 23.1966 59.5144 22.9578V21.6044C59.5144 21.0472 59.7267 20.7818 60.1248 20.7818C60.284 20.7818 60.4432 20.8084 60.6024 20.8614C60.7616 20.9145 61.0004 21.0206 61.2658 21.1268C62.168 21.5248 63.1499 21.8433 64.1848 22.0556C65.2462 22.2678 66.2811 22.374 67.3425 22.374C69.0143 22.374 70.3146 22.0821 71.2168 21.4983C72.119 20.9145 72.5966 20.0654 72.5966 18.9774C72.5966 18.2344 72.3578 17.624 71.8802 17.1199C71.4025 16.6157 70.5003 16.1646 69.2001 15.74L65.3523 14.5459C63.4152 13.9355 61.9823 13.0333 61.1066 11.8392C60.2309 10.6716 59.7798 9.37136 59.7798 7.99149C59.7798 6.87698 60.0186 5.89514 60.4963 5.04599C60.9739 4.19684 61.6108 3.45384 62.4068 2.87004C63.2029 2.25972 64.1051 1.80861 65.1666 1.49017C66.228 1.17174 67.3425 1.03906 68.5101 1.03906C69.0939 1.03906 69.7042 1.0656 70.288 1.14521C70.8984 1.22481 71.4556 1.33096 72.0129 1.4371C72.5436 1.56978 73.0478 1.70246 73.5254 1.86168C74.0031 2.02089 74.3746 2.18011 74.6399 2.33933C75.0114 2.55161 75.2768 2.7639 75.436 3.00272C75.5952 3.21501 75.6748 3.50691 75.6748 3.87841V5.1256C75.6748 5.68286 75.4625 5.97475 75.0645 5.97475C74.8522 5.97475 74.5072 5.86861 74.0561 5.65632C72.5436 4.96639 70.8453 4.62142 68.9612 4.62142C67.4487 4.62142 66.2546 4.86024 65.4319 5.36443C64.6093 5.86861 64.1848 6.63815 64.1848 7.72613C64.1848 8.46913 64.4501 9.106 64.9808 9.61018C65.5116 10.1144 66.4934 10.6185 67.8998 11.0697L71.6679 12.2638C73.5785 12.8741 74.9584 13.7233 75.781 14.8112C76.6036 15.8992 77.0016 17.1464 77.0016 18.5263C77.0016 19.6673 76.7628 20.7022 76.3117 21.6044C75.834 22.5067 75.1972 23.3027 74.3746 23.9396C73.5519 24.603 72.5701 25.0807 71.4291 25.4256C70.235 25.7971 68.9878 25.9829 67.6344 25.9829Z" fill="white"/>
<path fill-rule="evenodd" clip-rule="evenodd" d="M72.644 38.8797C63.9137 45.328 51.2295 48.7511 40.3232 48.7511C25.0385 48.7511 11.2663 43.099 0.864206 33.7052C0.0415908 32.9622 0.784598 31.9538 1.76643 32.5376C13.0177 39.0655 26.896 43.0193 41.2519 43.0193C50.9376 43.0193 61.5785 41.0026 71.3703 36.863C72.8298 36.1996 74.077 37.8183 72.644 38.8797Z" fill="#FF9900"/>
<path fill-rule="evenodd" clip-rule="evenodd" d="M76.2752 34.7391C75.1607 33.3062 68.8982 34.0492 66.0589 34.3942C65.2097 34.5003 65.0771 33.7573 65.8466 33.2C70.8354 29.6973 79.035 30.7057 79.9903 31.8732C80.9456 33.0674 79.7249 41.267 75.0546 45.1943C74.3381 45.8046 73.6482 45.4862 73.9666 44.6901C75.028 42.0631 77.3898 36.1455 76.2752 34.7391Z" fill="#FF9900"/>
</g>
<defs>
<clipPath id="clip0_1153_14472">
<rect width="80.6694" height="48.2955" fill="white" transform="translate(0.0810547 0.748047)"/>
</clipPath>
</defs>
</svg>
