<svg width="33" height="40" viewBox="0 0 33 40" fill="none" xmlns="http://www.w3.org/2000/svg">
<path fill-rule="evenodd" clip-rule="evenodd" d="M29.9514 7.33398L23.2461 20.0982L29.9514 32.8625L32.6981 31.3276V8.86893L29.9514 7.33398Z" fill="#E25444"/>
<path fill-rule="evenodd" clip-rule="evenodd" d="M29.9518 7.33398L16.5413 8.86893L9.71484 20.0982L16.5413 31.3276L29.9518 32.8625V7.33398Z" fill="#7B1D13"/>
<path fill-rule="evenodd" clip-rule="evenodd" d="M2.88826 7.33398L0.707031 8.30342V31.8931L2.88826 32.8625L16.5412 20.0982L2.88826 7.33398Z" fill="#58150D"/>
<path fill-rule="evenodd" clip-rule="evenodd" d="M2.86133 7.30664L16.5617 11.1126V29.4241L2.86133 32.871V7.30664Z" fill="#E25444"/>
<path fill-rule="evenodd" clip-rule="evenodd" d="M16.5682 13.1241L10.751 12.1905L16.5682 5.58398L22.3711 12.1905L16.5682 13.1241Z" fill="#58150D"/>
<path fill-rule="evenodd" clip-rule="evenodd" d="M22.3711 12.1905L16.5611 13.1384L10.751 12.1905V5.58398" fill="#58150D"/>
<path fill-rule="evenodd" clip-rule="evenodd" d="M16.5682 26.9844L10.751 28.0616L16.5682 33.7346L22.3711 28.0616L16.5682 26.9844Z" fill="#58150D"/>
<path fill-rule="evenodd" clip-rule="evenodd" d="M16.5412 0.628906L10.7246 3.69879V12.1814L16.5593 10.5387L16.5412 0.628906Z" fill="#7B1D13"/>
<path fill-rule="evenodd" clip-rule="evenodd" d="M16.5611 15.207L10.751 15.839V24.3085L16.5611 24.9732V15.207Z" fill="#7B1D13"/>
<path fill-rule="evenodd" clip-rule="evenodd" d="M16.5611 29.4959L10.751 28.0391V36.3652L16.5611 39.4057V29.4959Z" fill="#7B1D13"/>
<path fill-rule="evenodd" clip-rule="evenodd" d="M22.3716 28.0391L16.5615 29.4963V39.4057L22.3716 36.3652V28.0391Z" fill="#E25444"/>
<path fill-rule="evenodd" clip-rule="evenodd" d="M16.5615 15.207L22.3716 15.839V24.3085L16.5615 24.9732V15.207Z" fill="#E25444"/>
<path fill-rule="evenodd" clip-rule="evenodd" d="M16.541 0.628906L22.3576 3.69879V12.1814L16.541 10.5656V0.628906Z" fill="#E25444"/>
</svg>
