<svg width="84" height="64" viewBox="0 0 84 64" fill="none" xmlns="http://www.w3.org/2000/svg">
<path d="M41.8543 0.443123C41.4749 0.462233 41.1032 0.556291 40.761 0.719779L25.8426 7.84795C25.4564 8.03236 25.1172 8.30067 24.85 8.63296C24.5827 8.96525 24.3944 9.35299 24.299 9.76737L20.6185 25.7791C20.5336 26.148 20.524 26.53 20.5906 26.9027C20.6571 27.2753 20.7983 27.6309 21.0059 27.9484C21.0562 28.026 21.1103 28.1012 21.168 28.1736L31.494 41.0123C31.7613 41.3445 32.1006 41.6127 32.4867 41.797C32.8728 41.9813 33.2959 42.077 33.7244 42.0769L50.2837 42.0731C50.712 42.0734 51.135 41.9781 51.5211 41.7941C51.9072 41.6101 52.2466 41.3422 52.5141 41.0104L62.8362 28.1697C63.1036 27.8374 63.2921 27.4495 63.3875 27.0349C63.483 26.6204 63.483 26.1898 63.3876 25.7752L59.7014 9.76356C59.606 9.34918 59.4177 8.96144 59.1505 8.62914C58.8833 8.29685 58.544 8.02854 58.1579 7.84414L43.2375 0.719779C42.8071 0.514124 42.3314 0.418996 41.8543 0.443123Z" fill="#326CE5"/>
<path d="M42.0012 5.89453C41.508 5.89458 41.1082 6.33876 41.1082 6.88668C41.1082 6.89508 41.11 6.90312 41.1101 6.91148C41.1094 6.98593 41.1058 7.07562 41.1082 7.14044C41.12 7.45646 41.1889 7.69833 41.2303 7.98948C41.3055 8.61265 41.3684 9.12922 41.3296 9.60935C41.2918 9.7904 41.1584 9.95598 41.0395 10.0711L41.0186 10.4489C40.4827 10.4933 39.9432 10.5746 39.4044 10.6969C37.0859 11.2233 35.0896 12.4176 33.5698 14.0301C33.4712 13.9628 33.2987 13.8391 33.2474 13.8012C33.088 13.8227 32.9268 13.8719 32.717 13.7496C32.3174 13.4807 31.9534 13.1094 31.513 12.6621C31.3113 12.4482 31.1651 12.2444 30.9254 12.0382C30.8709 11.9914 30.7879 11.928 30.727 11.8798C30.5395 11.7304 30.3185 11.6525 30.105 11.6452C29.8305 11.6358 29.5662 11.7431 29.3933 11.96C29.0859 12.3456 29.1843 12.9349 29.6127 13.2765C29.6171 13.2799 29.6217 13.2826 29.6261 13.286C29.6849 13.3337 29.757 13.3949 29.8111 13.4348C30.0655 13.6227 30.2979 13.7188 30.5514 13.8679C31.0855 14.1977 31.5282 14.4712 31.8794 14.8009C32.0165 14.9471 32.0405 15.2047 32.0587 15.3161L32.3449 15.5718C30.8128 17.8774 30.1038 20.7254 30.5228 23.6272L30.1488 23.736C30.0503 23.8632 29.911 24.0635 29.7653 24.1233C29.3059 24.268 28.7888 24.3211 28.1646 24.3866C27.8715 24.4109 27.6186 24.3964 27.3079 24.4553C27.2395 24.4682 27.1442 24.493 27.0694 24.5106C27.0668 24.5111 27.0643 24.5119 27.0617 24.5125C27.0577 24.5134 27.0523 24.5154 27.0484 24.5163C26.5221 24.6435 26.184 25.1272 26.2928 25.6039C26.4017 26.0806 26.9158 26.3705 27.4452 26.2564C27.4491 26.2555 27.4546 26.2554 27.4586 26.2545C27.4646 26.2531 27.4698 26.2502 27.4758 26.2488C27.5496 26.2326 27.6421 26.2145 27.7066 26.1972C28.0121 26.1155 28.2334 25.9953 28.508 25.8901C29.0988 25.6782 29.5882 25.5011 30.0649 25.4321C30.264 25.4166 30.4738 25.555 30.5781 25.6134L30.9674 25.5466C31.8631 28.3236 33.7401 30.5681 36.117 31.9765L35.9548 32.3657C36.0133 32.5168 36.0777 32.7213 36.0342 32.8706C35.8609 33.32 35.564 33.7944 35.226 34.3233C35.0623 34.5676 34.8948 34.7572 34.7471 35.0369C34.7117 35.1038 34.6667 35.2066 34.6326 35.2773C34.4031 35.7683 34.5714 36.3338 35.0123 36.5461C35.4559 36.7596 36.0065 36.5344 36.2448 36.0424C36.2452 36.0417 36.2464 36.0412 36.2467 36.0405C36.247 36.0399 36.2465 36.0391 36.2467 36.0386C36.2807 35.9688 36.3287 35.8771 36.3574 35.8115C36.4839 35.5217 36.526 35.2733 36.615 34.993C36.8512 34.3995 36.981 33.7768 37.3063 33.3888C37.3953 33.2826 37.5405 33.2417 37.691 33.2014L37.8933 32.8351C39.9654 33.6304 42.2848 33.8439 44.6017 33.3178C45.1303 33.1978 45.6405 33.0425 46.1338 32.8561C46.1907 32.9569 46.2963 33.1507 46.3246 33.1995C46.4776 33.2493 46.6446 33.275 46.7806 33.4762C47.0239 33.8919 47.1904 34.3837 47.3931 34.9777C47.4821 35.258 47.526 35.5064 47.6526 35.7962C47.6814 35.8623 47.7292 35.9553 47.7632 36.0252C48.001 36.5188 48.5534 36.7448 48.9977 36.5308C49.4385 36.3185 49.607 35.753 49.3774 35.262C49.3432 35.1913 49.2963 35.0885 49.261 35.0216C49.1133 34.742 48.9458 34.5543 48.7821 34.3099C48.444 33.7811 48.1636 33.3417 47.9903 32.8923C47.9178 32.6605 48.0025 32.5164 48.059 32.3657C48.0251 32.327 47.9528 32.1081 47.9101 32.0051C50.3803 30.5466 52.2022 28.2184 53.0578 25.5295C53.1734 25.5476 53.3742 25.5831 53.4394 25.5962C53.5737 25.5077 53.6972 25.3921 53.9393 25.4112C54.4161 25.4801 54.9054 25.6572 55.4962 25.8691C55.7709 25.9743 55.9921 26.0964 56.2976 26.1782C56.3621 26.1955 56.4546 26.2116 56.5284 26.2278C56.5344 26.2292 56.5396 26.2321 56.5456 26.2335C56.5496 26.2344 56.5551 26.2345 56.559 26.2354C57.0885 26.3494 57.6026 26.0596 57.7114 25.5829C57.8201 25.1062 57.4822 24.6224 56.9558 24.4953C56.8793 24.4779 56.7707 24.4484 56.6963 24.4343C56.3856 24.3754 56.1327 24.3899 55.8397 24.3656C55.2154 24.3002 54.6983 24.247 54.2389 24.1023C54.0515 24.0296 53.9183 23.8067 53.8535 23.715L53.4929 23.61C53.6798 22.2574 53.6294 20.8497 53.3059 19.4411C52.9793 18.0195 52.4022 16.7192 51.6326 15.5737C51.7251 15.4896 51.8998 15.3349 51.9493 15.2894C51.9638 15.1292 51.9513 14.9612 52.1172 14.7838C52.4684 14.454 52.9111 14.1806 53.4452 13.8508C53.6986 13.7016 53.933 13.6055 54.1874 13.4177C54.2449 13.3752 54.3234 13.3079 54.3839 13.2593C54.8122 12.9176 54.9108 12.3283 54.6033 11.9428C54.2958 11.5573 53.6999 11.521 53.2715 11.8627C53.2106 11.9109 53.1278 11.9739 53.0731 12.021C52.8334 12.2273 52.6853 12.431 52.4835 12.6449C52.0432 13.0922 51.6792 13.4654 51.2796 13.7344C51.1065 13.8352 50.8528 13.8003 50.7377 13.7935L50.3981 14.0358C48.4615 12.0051 45.8248 10.7068 42.9857 10.4546C42.9777 10.3356 42.9673 10.1205 42.9647 10.0558C42.8485 9.94459 42.708 9.84964 42.6728 9.60935C42.6339 9.12922 42.6988 8.61265 42.7739 7.98948C42.8153 7.69833 42.8842 7.45646 42.896 7.14044C42.8987 7.0686 42.8944 6.96435 42.8941 6.88668C42.894 6.33876 42.4943 5.89448 42.0012 5.89453ZM40.8831 12.8205L40.6179 17.5045L40.5988 17.5141C40.581 17.9331 40.2361 18.2677 39.8127 18.2677C39.6393 18.2677 39.4792 18.212 39.3491 18.117L39.3414 18.1208L35.5007 15.3981C36.6811 14.2374 38.191 13.3796 39.931 12.9845C40.2489 12.9124 40.5666 12.8588 40.8831 12.8205ZM43.1211 12.8205C45.1527 13.0703 47.0314 13.9902 48.4711 15.4L44.6551 18.1055L44.6418 18.0998C44.3031 18.3472 43.8259 18.2858 43.5619 17.9548C43.4537 17.8192 43.397 17.6598 43.3902 17.4988L43.3863 17.4969L43.1211 12.8205ZM34.1079 17.1477L37.6147 20.2844L37.6109 20.3035C37.9275 20.5787 37.9741 21.0562 37.7101 21.3872C37.602 21.5229 37.4572 21.6138 37.3018 21.6563L37.298 21.6715L32.8028 22.969C32.574 20.8769 33.0671 18.8432 34.1079 17.1477ZM49.8696 17.1496C50.3907 17.9942 50.7852 18.9375 51.0201 19.9601C51.2522 20.9704 51.3104 21.979 51.2147 22.9537L46.6967 21.6525L46.6929 21.6334C46.2883 21.5228 46.0396 21.1113 46.1338 20.6985C46.1724 20.5294 46.2622 20.3863 46.3838 20.2806L46.3819 20.2711L49.8696 17.1496ZM41.2819 20.5267H42.7186L43.6115 21.6429L43.2909 23.0357L42.0012 23.6558L40.7076 23.0338L40.387 21.641L41.2819 20.5267ZM45.8877 24.3465C45.9487 24.3434 46.0095 24.3489 46.069 24.3599L46.0766 24.3503L50.7263 25.1364C50.0458 27.0482 48.7437 28.7045 47.0039 29.8128L45.1989 25.4531L45.2046 25.4455C45.0388 25.0602 45.2048 24.6085 45.5862 24.4247C45.6839 24.3777 45.7859 24.3516 45.8877 24.3465ZM38.0784 24.3656C38.4332 24.3706 38.7515 24.6168 38.8339 24.978C38.8725 25.1471 38.8537 25.3147 38.79 25.4627L38.8034 25.4798L37.0175 29.7957C35.3479 28.7242 34.0179 27.12 33.3065 25.1517L37.9162 24.3694L37.9238 24.3789C37.9754 24.3695 38.0277 24.3649 38.0784 24.3656ZM41.9725 26.2564C42.0961 26.2518 42.2216 26.2772 42.3408 26.3346C42.497 26.4099 42.6178 26.5284 42.6938 26.6704H42.7109L44.9833 30.7764C44.6884 30.8752 44.3852 30.9597 44.0751 31.0301C42.3372 31.4247 40.6048 31.3052 39.0362 30.7706L41.3028 26.6723H41.3067C41.4427 26.4181 41.7006 26.2664 41.9725 26.2564Z" fill="white" stroke="white" stroke-width="0.0152638"/>
<path d="M2.09549 60.4707V49.3658H3.44023V54.8749H3.57037L8.55891 49.3658H10.3158L5.65254 54.376L10.3158 60.4707H8.68905L4.82835 55.3086L3.44023 56.8703V60.4707H2.09549ZM16.6097 57.0655V52.142H17.8894V60.4707H16.6097V59.0609H16.523C16.3278 59.4838 16.0241 59.8435 15.612 60.1399C15.1999 60.4327 14.6794 60.5791 14.0504 60.5791C13.5298 60.5791 13.0671 60.4653 12.6623 60.2375C12.2574 60.0062 11.9393 59.6592 11.7079 59.1965C11.4766 58.7301 11.3609 58.1427 11.3609 57.4342V52.142H12.6406V57.3474C12.6406 57.9547 12.8105 58.4391 13.1503 58.8006C13.4937 59.1621 13.9311 59.3429 14.4625 59.3429C14.7806 59.3429 15.1041 59.2615 15.4331 59.0989C15.7656 58.9362 16.044 58.6868 16.2681 58.3506C16.4959 58.0144 16.6097 57.586 16.6097 57.0655ZM20.4067 60.4707V49.3658H21.6864V53.465H21.7948C21.8888 53.3205 22.019 53.1361 22.1852 52.912C22.3551 52.6842 22.5973 52.4818 22.9118 52.3047C23.2299 52.1239 23.6601 52.0336 24.2023 52.0336C24.9036 52.0336 25.5218 52.2089 26.0568 52.5595C26.5918 52.9102 27.0093 53.4072 27.3093 54.0507C27.6094 54.6941 27.7594 55.4532 27.7594 56.328C27.7594 57.2101 27.6094 57.9746 27.3093 58.6217C27.0093 59.2651 26.5936 59.764 26.0622 60.1183C25.5308 60.4689 24.9181 60.6442 24.224 60.6442C23.689 60.6442 23.2607 60.5557 22.9389 60.3785C22.6172 60.1978 22.3696 59.9935 22.1961 59.7658C22.0226 59.5344 21.8888 59.3429 21.7948 59.191H21.643V60.4707H20.4067ZM21.6647 56.3064C21.6647 56.9353 21.7569 57.4902 21.9412 57.971C22.1256 58.4482 22.3949 58.8223 22.7492 59.0934C23.1034 59.3609 23.5372 59.4947 24.0505 59.4947C24.5855 59.4947 25.032 59.3537 25.3898 59.0717C25.7513 58.7862 26.0224 58.403 26.2032 57.9222C26.3875 57.4378 26.4797 56.8992 26.4797 56.3064C26.4797 55.7207 26.3894 55.193 26.2086 54.723C26.0315 54.2495 25.7622 53.8753 25.4007 53.6006C25.0428 53.3223 24.5928 53.1831 24.0505 53.1831C23.53 53.1831 23.0926 53.315 22.7383 53.5789C22.3841 53.8392 22.1166 54.2043 21.9358 54.6742C21.7551 55.1406 21.6647 55.6846 21.6647 56.3064ZM33.2088 60.6442C32.4063 60.6442 31.7141 60.4671 31.1321 60.1128C30.5537 59.755 30.1073 59.2561 29.7928 58.6163C29.4819 57.9728 29.3264 57.2245 29.3264 56.3714C29.3264 55.5183 29.4819 54.7664 29.7928 54.1157C30.1073 53.4614 30.5447 52.9517 31.105 52.5866C31.6689 52.2179 32.3268 52.0336 33.0787 52.0336C33.5125 52.0336 33.9409 52.1059 34.3638 52.2504C34.7867 52.395 35.1717 52.63 35.5188 52.9554C35.8658 53.2771 36.1423 53.7036 36.3484 54.235C36.5544 54.7664 36.6574 55.4207 36.6574 56.1979V56.7401H30.2374V55.634H35.3561C35.3561 55.164 35.2621 54.7447 35.0741 54.376C34.8898 54.0073 34.6259 53.7163 34.2825 53.503C33.9427 53.2897 33.5414 53.1831 33.0787 53.1831C32.569 53.1831 32.128 53.3096 31.7557 53.5627C31.3869 53.8121 31.1032 54.1374 30.9043 54.5387C30.7055 54.9399 30.6061 55.3701 30.6061 55.8292V56.5666C30.6061 57.1956 30.7146 57.7288 30.9315 58.1662C31.152 58.6 31.4574 58.9308 31.8478 59.1585C32.2382 59.3826 32.6919 59.4947 33.2088 59.4947C33.545 59.4947 33.8487 59.4477 34.1198 59.3537C34.3945 59.2561 34.6313 59.1115 34.8301 58.9199C35.0289 58.7247 35.1826 58.4825 35.291 58.1933L36.5273 58.5404C36.3972 58.9597 36.1785 59.3284 35.8712 59.6465C35.5639 59.961 35.1844 60.2068 34.7325 60.3839C34.2807 60.5575 33.7728 60.6442 33.2088 60.6442ZM38.6041 60.4707V52.142H39.8404V53.4H39.9271C40.0789 52.9879 40.3537 52.6535 40.7513 52.3968C41.1489 52.1402 41.5972 52.0119 42.096 52.0119C42.19 52.0119 42.3075 52.0137 42.4485 52.0173C42.5895 52.0209 42.6961 52.0263 42.7684 52.0336V53.3349C42.725 53.3241 42.6256 53.3078 42.4702 53.2861C42.3184 53.2608 42.1575 53.2482 41.9876 53.2482C41.5827 53.2482 41.2212 53.3331 40.9031 53.503C40.5886 53.6693 40.3392 53.9006 40.1548 54.1971C39.9741 54.4899 39.8837 54.8242 39.8837 55.2002V60.4707H38.6041ZM45.565 55.4605V60.4707H44.2853V52.142H45.5216V53.4434H45.63C45.8252 53.0204 46.1217 52.6806 46.5193 52.424C46.9169 52.1637 47.4303 52.0336 48.0592 52.0336C48.6232 52.0336 49.1166 52.1492 49.5395 52.3806C49.9625 52.6083 50.2914 52.9554 50.5264 53.4217C50.7614 53.8844 50.8789 54.47 50.8789 55.1785V60.4707H49.5992V55.2653C49.5992 54.611 49.4293 54.1013 49.0895 53.7362C48.7497 53.3674 48.2834 53.1831 47.6905 53.1831C47.282 53.1831 46.9169 53.2717 46.5952 53.4488C46.2771 53.6259 46.0259 53.8844 45.8415 54.2242C45.6572 54.564 45.565 54.9761 45.565 55.4605ZM56.7092 60.6442C55.9067 60.6442 55.2145 60.4671 54.6325 60.1128C54.0541 59.755 53.6077 59.2561 53.2932 58.6163C52.9823 57.9728 52.8268 57.2245 52.8268 56.3714C52.8268 55.5183 52.9823 54.7664 53.2932 54.1157C53.6077 53.4614 54.0451 52.9517 54.6054 52.5866C55.1693 52.2179 55.8272 52.0336 56.5791 52.0336C57.0129 52.0336 57.4412 52.1059 57.8642 52.2504C58.2871 52.395 58.6721 52.63 59.0191 52.9554C59.3662 53.2771 59.6427 53.7036 59.8488 54.235C60.0548 54.7664 60.1578 55.4207 60.1578 56.1979V56.7401H53.7378V55.634H58.8565C58.8565 55.164 58.7625 54.7447 58.5745 54.376C58.3901 54.0073 58.1263 53.7163 57.7828 53.503C57.443 53.2897 57.0418 53.1831 56.5791 53.1831C56.0694 53.1831 55.6284 53.3096 55.256 53.5627C54.8873 53.8121 54.6036 54.1374 54.4047 54.5387C54.2059 54.9399 54.1065 55.3701 54.1065 55.8292V56.5666C54.1065 57.1956 54.215 57.7288 54.4318 58.1662C54.6524 58.6 54.9578 58.9308 55.3482 59.1585C55.7386 59.3826 56.1923 59.4947 56.7092 59.4947C57.0454 59.4947 57.3491 59.4477 57.6202 59.3537C57.8949 59.2561 58.1317 59.1115 58.3305 58.9199C58.5293 58.7247 58.683 58.4825 58.7914 58.1933L60.0277 58.5404C59.8976 58.9597 59.6789 59.3284 59.3716 59.6465C59.0643 59.961 58.6848 60.2068 58.2329 60.3839C57.781 60.5575 57.2731 60.6442 56.7092 60.6442ZM65.7266 52.142V53.2265H61.4104V52.142H65.7266ZM62.6684 50.1466H63.948V58.0849C63.948 58.4464 64.0005 58.7175 64.1053 58.8982C64.2137 59.0754 64.3511 59.1946 64.5174 59.2561C64.6873 59.3139 64.8662 59.3429 65.0542 59.3429C65.1952 59.3429 65.3109 59.3356 65.4012 59.3212C65.4916 59.3031 65.5639 59.2886 65.6181 59.2778L65.8784 60.4273C65.7916 60.4599 65.6705 60.4924 65.5151 60.5249C65.3597 60.5611 65.1626 60.5791 64.9241 60.5791C64.5626 60.5791 64.2083 60.5014 63.8613 60.346C63.5179 60.1905 63.2323 59.9538 63.0046 59.6357C62.7804 59.3176 62.6684 58.9163 62.6684 58.4319V50.1466ZM71.054 60.6442C70.2515 60.6442 69.5593 60.4671 68.9773 60.1128C68.3989 59.755 67.9524 59.2561 67.6379 58.6163C67.3271 57.9728 67.1716 57.2245 67.1716 56.3714C67.1716 55.5183 67.3271 54.7664 67.6379 54.1157C67.9524 53.4614 68.3898 52.9517 68.9501 52.5866C69.5141 52.2179 70.172 52.0336 70.9239 52.0336C71.3577 52.0336 71.786 52.1059 72.209 52.2504C72.6319 52.395 73.0169 52.63 73.3639 52.9554C73.7109 53.2771 73.9875 53.7036 74.1935 54.235C74.3996 54.7664 74.5026 55.4207 74.5026 56.1979V56.7401H68.0826V55.634H73.2013C73.2013 55.164 73.1073 54.7447 72.9193 54.376C72.7349 54.0073 72.471 53.7163 72.1276 53.503C71.7878 53.2897 71.3866 53.1831 70.9239 53.1831C70.4142 53.1831 69.9732 53.3096 69.6008 53.5627C69.2321 53.8121 68.9483 54.1374 68.7495 54.5387C68.5507 54.9399 68.4513 55.3701 68.4513 55.8292V56.5666C68.4513 57.1956 68.5597 57.7288 68.7766 58.1662C68.9971 58.6 69.3026 58.9308 69.693 59.1585C70.0834 59.3826 70.5371 59.4947 71.054 59.4947C71.3902 59.4947 71.6938 59.4477 71.965 59.3537C72.2397 59.2561 72.4765 59.1115 72.6753 58.9199C72.8741 58.7247 73.0277 58.4825 73.1362 58.1933L74.3725 58.5404C74.2423 58.9597 74.0236 59.3284 73.7164 59.6465C73.4091 59.961 73.0295 60.2068 72.5777 60.3839C72.1258 60.5575 71.6179 60.6442 71.054 60.6442ZM82.3487 54.0073L81.1992 54.3326C81.1269 54.141 81.0203 53.9549 80.8793 53.7741C80.7419 53.5898 80.5539 53.4379 80.3154 53.3186C80.0768 53.1994 79.7713 53.1397 79.399 53.1397C78.8893 53.1397 78.4645 53.2572 78.1247 53.4922C77.7885 53.7235 77.6205 54.0181 77.6205 54.376C77.6205 54.6941 77.7361 54.9453 77.9675 55.1297C78.1988 55.3141 78.5603 55.4677 79.052 55.5906L80.2882 55.8943C81.0329 56.075 81.5878 56.3515 81.9529 56.7239C82.318 57.0926 82.5006 57.5679 82.5006 58.1499C82.5006 58.6271 82.3632 59.0537 82.0885 59.4296C81.8173 59.8056 81.4378 60.102 80.9498 60.3189C80.4618 60.5358 79.8942 60.6442 79.2472 60.6442C78.3977 60.6442 77.6946 60.4599 77.1379 60.0911C76.5812 59.7224 76.2287 59.1838 76.0805 58.4753L77.2951 58.1716C77.4108 58.6199 77.6295 58.9561 77.9512 59.1802C78.2766 59.4043 78.7013 59.5164 79.2255 59.5164C79.8219 59.5164 80.2955 59.3899 80.6461 59.1368C81.0004 58.8802 81.1775 58.5729 81.1775 58.215C81.1775 57.9258 81.0763 57.6836 80.8739 57.4884C80.6714 57.2896 80.3605 57.1414 79.9412 57.0438L78.5531 56.7184C77.7904 56.5377 77.23 56.2576 76.8722 55.878C76.5179 55.4948 76.3408 55.0158 76.3408 54.4411C76.3408 53.9711 76.4727 53.5554 76.7366 53.1939C77.0041 52.8324 77.3674 52.5487 77.8265 52.3426C78.2892 52.1366 78.8134 52.0336 79.399 52.0336C80.2232 52.0336 80.8702 52.2143 81.3402 52.5758C81.8137 52.9373 82.1499 53.4144 82.3487 54.0073Z" fill="white"/>
</svg>
