<svg width="54" height="54" viewBox="0 0 54 54" fill="none" xmlns="http://www.w3.org/2000/svg">
<path d="M19.0493 4.32476H33.2734L18.5074 48.0748C18.3556 48.5244 18.0667 48.915 17.6813 49.1918C17.2959 49.4685 16.8333 49.6174 16.3589 49.6175H5.28901C4.92951 49.6175 4.57516 49.532 4.25529 49.3679C3.93541 49.2038 3.6592 48.9659 3.44951 48.6739C3.23981 48.3819 3.10266 48.0442 3.0494 47.6886C2.99614 47.3331 3.0283 46.97 3.14322 46.6293L16.9002 5.86746C17.0519 5.41771 17.3409 5.02688 17.7264 4.75003C18.112 4.47317 18.5747 4.32479 19.0493 4.32476Z" fill="url(#paint0_linear_1153_14478)"/>
<path d="M39.7192 33.668H17.1633C16.9536 33.6677 16.7487 33.7307 16.5752 33.8486C16.4018 33.9664 16.2679 34.1338 16.191 34.3289C16.114 34.524 16.0976 34.7377 16.1439 34.9423C16.1902 35.1468 16.297 35.3326 16.4504 35.4756L30.9443 49.0037C31.3663 49.3974 31.9219 49.6162 32.499 49.6161H45.2711L39.7192 33.668Z" fill="#0078D4"/>
<path d="M19.0464 4.32424C18.5666 4.32239 18.0987 4.47402 17.7112 4.75698C17.3237 5.03993 17.0368 5.43938 16.8924 5.89698L3.15726 46.5917C3.03461 46.9335 2.99611 47.2999 3.045 47.6598C3.0939 48.0197 3.22876 48.3626 3.43818 48.6593C3.64759 48.9561 3.9254 49.1981 4.24811 49.3648C4.57081 49.5314 4.92892 49.618 5.29213 49.617H16.6477C17.0706 49.5414 17.4659 49.3549 17.7932 49.0766C18.1205 48.7983 18.368 48.4381 18.5105 48.0328L21.2496 39.9604L31.0335 49.086C31.4435 49.4251 31.9578 49.6126 32.4898 49.617H45.2144L39.6336 33.6688L23.3648 33.6727L33.3218 4.32424H19.0464Z" fill="url(#paint1_linear_1153_14478)"/>
<path d="M37.2181 5.86473C37.0666 5.41571 36.778 5.02553 36.3931 4.74916C36.0081 4.47279 35.5462 4.32416 35.0723 4.32422H19.2197C19.6936 4.32425 20.1555 4.4729 20.5405 4.74926C20.9254 5.02562 21.214 5.41575 21.3655 5.86473L35.1231 46.6283C35.2381 46.969 35.2703 47.3321 35.2171 47.6878C35.1639 48.0434 35.0268 48.3813 34.8171 48.6734C34.6074 48.9655 34.3311 49.2035 34.0112 49.3677C33.6913 49.5318 33.3369 49.6175 32.9773 49.6175H48.8304C49.1899 49.6174 49.5443 49.5317 49.8641 49.3675C50.184 49.2033 50.4601 48.9653 50.6698 48.6732C50.8794 48.3811 51.0165 48.0432 51.0697 47.6876C51.1228 47.3321 51.0906 46.9689 50.9756 46.6283L37.2181 5.86473Z" fill="url(#paint2_linear_1153_14478)"/>
<defs>
<linearGradient id="paint0_linear_1153_14478" x1="24.2335" y1="7.68112" x2="9.46151" y2="51.3214" gradientUnits="userSpaceOnUse">
<stop stop-color="#114A8B"/>
<stop offset="1" stop-color="#0669BC"/>
</linearGradient>
<linearGradient id="paint1_linear_1153_14478" x1="28.8451" y1="28.0181" x2="25.4281" y2="29.1735" gradientUnits="userSpaceOnUse">
<stop stop-opacity="0.3"/>
<stop offset="0.071" stop-opacity="0.2"/>
<stop offset="0.321" stop-opacity="0.1"/>
<stop offset="0.623" stop-opacity="0.05"/>
<stop offset="1" stop-opacity="0"/>
</linearGradient>
<linearGradient id="paint2_linear_1153_14478" x1="26.9698" y1="6.40774" x2="43.1851" y2="49.6082" gradientUnits="userSpaceOnUse">
<stop stop-color="#3CCBF4"/>
<stop offset="1" stop-color="#2892DF"/>
</linearGradient>
</defs>
</svg>
