<svg width="115" height="54" viewBox="0 0 115 54" fill="none" xmlns="http://www.w3.org/2000/svg">
<path d="M38.9846 28.4473C40.1502 30.7376 42.0151 31.8663 44.6279 31.8663C47.433 31.8663 48.4334 30.3821 48.4334 28.931C48.4334 27.9306 48.0779 27.2545 47.1435 26.6407C46.2072 25.9957 45.5312 25.7063 43.8547 25.0866C41.7897 24.3095 40.597 23.7268 39.3071 22.6991C38.0172 21.6346 37.4053 20.1737 37.4053 18.2816C37.3831 17.4466 37.5515 16.6176 37.8979 15.8575C38.2443 15.0974 38.7595 14.4263 39.4042 13.8952C40.764 12.7666 42.4036 12.2188 44.3695 12.2188C47.433 12.2188 49.7544 13.4445 51.3027 15.8631L48.4334 17.8387C47.5632 16.5158 46.2402 15.8378 44.4336 15.8378C42.66 15.8378 41.3701 16.8383 41.3701 18.2253C41.3701 19.1597 41.7586 19.6123 42.3065 20.1679C42.66 20.4263 43.5633 20.8129 43.9829 21.0382L45.1485 21.4889L46.4695 22.0056C48.6063 22.8759 50.1138 23.8122 51.0482 24.8107C51.9826 25.8092 52.4682 27.1652 52.4682 28.8417C52.4682 32.8085 49.7272 35.4854 44.5987 35.4854C40.4396 35.4854 37.3761 33.5428 35.958 30.3569L38.9846 28.4473Z" fill="white"/>
<path d="M68.8164 21.1254L66.4367 23.6081C65.9137 23.0371 65.2755 22.5838 64.5642 22.278C63.8528 21.9722 63.0847 21.8211 62.3106 21.8345C61.6463 21.8186 60.9858 21.9391 60.37 22.1888C59.7541 22.4384 59.1961 22.8117 58.7303 23.2856C57.8184 24.2802 57.3126 25.5806 57.3126 26.93C57.3126 28.2793 57.8184 29.5797 58.7303 30.5743C59.1961 31.0482 59.7541 31.4216 60.37 31.6712C60.9858 31.9208 61.6463 32.0413 62.3106 32.0254C63.0847 32.0388 63.8528 31.8877 64.5642 31.5819C65.2755 31.2762 65.9137 30.8228 66.4367 30.2518L68.8241 32.7345C67.0758 34.6052 64.9214 35.5396 62.3106 35.5396C59.826 35.5396 57.7299 34.7334 56.0223 33.088C54.3148 31.4426 53.4736 29.3796 53.4736 26.93C53.4736 24.4803 54.3128 22.4464 56.0223 20.803C57.7318 19.1595 59.826 18.3203 62.3106 18.3203C64.9137 18.3203 67.0738 19.2547 68.8164 21.1254Z" fill="white"/>
<path d="M76.5236 25.1874C79.2665 24.931 80.2378 24.5755 80.2378 23.3186C80.2378 22.3182 79.3365 21.545 77.5298 21.545C75.7893 21.545 74.3381 22.2541 73.1764 23.6722L70.7909 21.6402C72.3703 19.4159 74.5946 18.3203 77.4657 18.3203C81.4966 18.3203 84.0123 20.2629 84.0123 23.5751V30.7627C84.0123 31.8914 84.43 32.0215 85.3721 32.0215H85.4693V35.019C85.0807 35.2463 84.4688 35.3745 83.6626 35.3745C82.7924 35.3745 82.1086 35.1161 81.5996 34.5974C81.328 34.2908 81.1288 33.9269 81.0168 33.5329C79.8882 34.8539 78.0504 35.5318 75.5017 35.5318C71.9235 35.5318 69.5049 33.564 69.5049 30.5976C69.4952 27.2835 71.7195 25.607 76.5236 25.1874ZM76.0729 32.2546C78.6527 32.2546 80.232 31.0891 80.232 29.0299V27.2233C80.0087 27.4494 79.7322 27.6158 79.4278 27.707C78.6857 27.9654 78.202 28.0295 76.6537 28.1907C74.3964 28.4491 73.2677 29.162 73.2677 30.2868C73.2677 31.5417 74.2993 32.2546 76.0729 32.2546Z" fill="white"/>
<path d="M86.4229 12.6094H90.2925V29.7665C90.2925 31.3458 90.8093 32.0238 92.2351 32.0238C92.6279 32.0364 93.0204 31.9925 93.4007 31.8937V35.3437C92.799 35.4907 92.1802 35.556 91.5611 35.538C88.144 35.538 86.4345 33.7896 86.4345 30.2813L86.4229 12.6094Z" fill="white"/>
<path d="M101.338 25.1874C104.079 24.931 105.046 24.5755 105.046 23.3186C105.046 22.3182 104.145 21.545 102.338 21.545C100.598 21.545 99.1467 22.2541 97.985 23.6722L95.5995 21.6402C97.1788 19.4159 99.4031 18.3203 102.274 18.3203C106.305 18.3203 108.821 20.2629 108.821 23.5751V30.7627C108.821 31.8914 109.239 32.0215 110.181 32.0215H110.278V35.019C109.889 35.2463 109.277 35.3745 108.471 35.3745C107.601 35.3745 106.917 35.1161 106.408 34.5974C106.136 34.2912 105.937 33.9273 105.825 33.5329C104.697 34.8539 102.859 35.5318 100.31 35.5318C96.732 35.5318 94.3135 33.564 94.3135 30.5976C94.3096 27.2835 96.5378 25.607 101.338 25.1874ZM100.887 32.2546C103.467 32.2546 105.046 31.0891 105.046 29.0299V27.2233C104.823 27.4499 104.545 27.6162 104.24 27.707C103.5 27.9654 103.016 28.0295 101.468 28.1907C99.2108 28.4491 98.0821 29.162 98.0821 30.2868C98.0919 31.5417 99.1137 32.2546 100.887 32.2546Z" fill="white"/>
<path fill-rule="evenodd" clip-rule="evenodd" d="M5.92676 19.2051C6.28614 19.7005 9.31661 20.6349 13.8371 21.6081C18.3575 22.4745 23.0586 25.8954 26.7146 24.8406C29.1876 24.1257 31.8703 17.7559 31.8703 16.8099V16.7127C31.8703 16.0522 31.3749 15.5219 30.5338 15.0809C27.0857 13.319 26.4329 12.6702 25.1547 13.0218C18.5187 14.8536 6.80287 13.9173 5.92676 19.2051Z" fill="white"/>
<path fill-rule="evenodd" clip-rule="evenodd" d="M5.92676 32.1395C6.28614 32.6426 9.31661 33.5692 13.8371 34.5444C18.8878 35.4652 23.2801 38.4665 26.938 37.4098C29.411 36.6949 31.8703 30.6922 31.8703 29.7442V29.651C31.8703 28.9924 31.3749 28.4602 30.5338 28.0211C27.9035 26.6225 24.4282 25.082 23.1519 25.4336C16.5043 27.2616 7.61877 27.6637 5.92676 32.1395Z" fill="white"/>
<path fill-rule="evenodd" clip-rule="evenodd" d="M5.89702 21.9863V22.0804C5.895 22.0491 5.895 22.0176 5.89702 21.9863Z" fill="#555555"/>
<path fill-rule="evenodd" clip-rule="evenodd" d="M26.9418 6.37514C20.8304 8.14097 11.1348 9.13753 5.91113 9.13753V19.1128C5.91279 19.1471 5.92577 19.1799 5.94804 19.2061C9.51273 19.2061 20.5176 18.0405 27.1574 16.2144C28.3154 15.9197 29.4509 15.5425 30.5551 15.0858C31.3671 14.7206 31.8916 14.3359 31.8916 13.9358V3.875C31.8838 4.82299 29.4148 5.6622 26.9418 6.37514Z" fill="#DE3423"/>
<path fill-rule="evenodd" clip-rule="evenodd" d="M26.9418 19.3126C23.2839 20.3675 18.3477 21.1523 13.8506 21.6107C10.8318 21.9196 8.01109 22.0809 5.91113 22.0809V32.0484C5.91279 32.0827 5.92577 32.1155 5.94804 32.1416C9.51273 32.1416 20.5176 30.9761 27.1574 29.152C28.3152 28.8563 29.4506 28.4792 30.5551 28.0233C31.3671 27.6561 31.8916 27.2734 31.8916 26.8733V16.8125C31.8838 17.7586 29.4148 18.5978 26.9418 19.3126Z" fill="#DE3423"/>
<path fill-rule="evenodd" clip-rule="evenodd" d="M26.934 32.254C23.276 33.3088 18.3399 34.0917 13.8427 34.5521C10.82 34.861 7.99547 35.0222 5.89551 35.0222V45.0752C9.42329 45.0752 20.4845 43.9194 27.1418 42.0855C29.5953 41.4095 31.876 40.6402 31.876 39.8049V29.7441C31.876 30.6999 29.4069 31.5313 26.934 32.254Z" fill="#DE3423"/>
</svg>
