<svg width="105" height="54" viewBox="0 0 105 54" fill="none" xmlns="http://www.w3.org/2000/svg">
<path d="M56.9118 10.8415L57.9095 10.8589L60.6199 8.14846L60.7507 6.99992C58.5967 5.08395 55.7624 3.91797 52.6604 3.91797C47.0441 3.91797 42.3035 7.73945 40.8994 12.9162C41.1959 12.7095 41.8282 12.8638 41.8282 12.8638L47.2456 11.9726C47.2456 11.9726 47.5247 11.5104 47.6642 11.5391C48.827 10.267 50.4315 9.48649 52.1501 9.35684C53.8688 9.22719 55.5713 9.75818 56.9118 10.8415Z" fill="#EA4335"/>
<path d="M64.4465 12.9228C63.8237 10.6315 62.5459 8.5718 60.7698 6.99609L56.9309 10.835C57.7187 11.4682 58.3545 12.2701 58.7914 13.1815C59.2284 14.0929 59.4553 15.0908 59.4555 16.1016V16.7792C61.3235 16.7792 62.8392 18.2992 62.8392 20.1629C62.8392 22.0265 61.3192 23.5466 59.4555 23.5466H52.6864L52.0088 24.2268V28.289L52.6864 28.9631H59.4555C61.7868 28.9569 64.0207 28.0276 65.6686 26.3786C67.3165 24.7295 68.2442 22.495 68.2488 20.1637C68.2453 17.1672 66.7348 14.5126 64.4378 12.9228H64.4465Z" fill="#4285F4"/>
<path d="M45.8962 28.97H52.6636V23.5526H45.8962C45.4156 23.5528 44.9406 23.4496 44.5035 23.25L43.5268 23.5491L40.8163 26.2596L40.5791 27.1753C42.1041 28.3462 43.9745 28.978 45.8971 28.9718L45.8962 28.97Z" fill="#34A853"/>
<path d="M45.8976 11.3672C43.564 11.3709 41.3272 12.2995 39.6771 13.9496C38.027 15.5996 37.0984 17.8365 37.0947 20.17C37.0947 21.5288 37.4097 22.8692 38.015 24.0857C38.6202 25.3023 39.4993 26.362 40.5831 27.1816L44.5075 23.2572C43.913 22.9898 43.4085 22.5563 43.0545 22.0089C42.7005 21.4616 42.5122 20.8236 42.5121 20.1718C42.5121 18.3038 44.0322 16.7881 45.8958 16.7881C46.5474 16.7892 47.1849 16.978 47.7321 17.3318C48.2792 17.6857 48.7129 18.1896 48.9813 18.7834L52.9057 14.859C51.2958 12.7399 48.7545 11.3707 45.8941 11.3707L45.8976 11.3672Z" fill="#FBBC05"/>
<path d="M10.804 46.042C8.95519 46.042 7.368 45.388 6.03021 44.0798C4.69243 42.7717 4.02441 41.1985 4.02441 39.3636C4.02441 37.5287 4.69156 35.9555 6.03021 34.6473C7.36887 33.3392 8.95781 32.6843 10.804 32.6843C11.6509 32.672 12.4919 32.8283 13.2778 33.1442C14.0637 33.4601 14.7788 33.9293 15.3816 34.5244L14.0935 35.8124C13.2121 34.9601 12.0291 34.4914 10.8031 34.5087C9.46885 34.5087 8.33514 34.9796 7.40549 35.9276C6.95324 36.3767 6.59667 36.9127 6.3573 37.5034C6.11793 38.0941 6.00073 38.7272 6.01277 39.3645C6.01277 40.7127 6.47498 41.856 7.40549 42.8005C7.84277 43.2593 8.37055 43.6223 8.9554 43.8665C9.54025 44.1108 10.1694 44.2309 10.8031 44.2194C12.1619 44.2194 13.2842 43.7833 14.1781 42.8816C14.7014 42.3583 15.0502 41.5735 15.1723 40.5836H10.8066V38.7592H16.9496C17.015 39.0836 17.0368 39.4569 17.0368 39.8929C17.0368 41.686 16.511 43.1074 15.4557 44.1618C14.2592 45.4132 12.7087 46.0368 10.7944 46.0368L10.804 46.042ZM25.0801 44.8211C24.2429 45.6409 23.2225 46.042 22.0173 46.042C20.8121 46.042 19.79 45.6321 18.9545 44.8211C18.1191 44.0101 17.7005 42.9784 17.7005 41.7514C17.7005 40.5243 18.1191 39.5014 18.9545 38.6816C19.79 37.8618 20.8121 37.4607 22.0173 37.4607C23.2225 37.4607 24.2446 37.8706 25.0801 38.6816C25.9155 39.4927 26.3341 40.5269 26.3341 41.7514C26.3341 42.9758 25.9155 44.0013 25.0801 44.8211ZM20.3063 43.6176C20.5238 43.8541 20.7887 44.0421 21.0836 44.1697C21.3785 44.2972 21.6969 44.3614 22.0182 44.358C22.681 44.358 23.2513 44.1121 23.7301 43.6167C24.2089 43.1214 24.4469 42.5005 24.4469 41.7505C24.4469 40.9918 24.2115 40.3656 23.7379 39.8755C23.2644 39.3854 22.6932 39.1429 22.0182 39.1429C21.6962 39.138 21.3768 39.2006 21.0806 39.3268C20.7844 39.453 20.5179 39.6399 20.2984 39.8755C19.8249 40.3639 19.5894 40.9883 19.5894 41.7505C19.5894 42.4987 19.8275 43.1223 20.3063 43.6167V43.6176ZM34.4977 44.8211C33.6605 45.6409 32.6402 46.042 31.435 46.042C30.2298 46.042 29.2077 45.6321 28.3722 44.8211C27.5367 44.0101 27.1181 42.9784 27.1181 41.7514C27.1181 40.5243 27.5367 39.5014 28.3722 38.6816C29.2077 37.8618 30.2298 37.4607 31.435 37.4607C32.6402 37.4607 33.6623 37.8706 34.4977 38.6816C35.3332 39.4927 35.7518 40.5269 35.7518 41.7514C35.7518 42.9758 35.3332 44.0013 34.4977 44.8211ZM29.7239 43.6176C29.9415 43.8541 30.2063 44.0421 30.5012 44.1697C30.7961 44.2972 31.1146 44.3614 31.4358 44.358C32.0986 44.358 32.669 44.1121 33.1477 43.6167C33.6265 43.1214 33.8646 42.5005 33.8646 41.7505C33.8646 40.9918 33.6291 40.3656 33.1556 39.8755C32.6821 39.3854 32.1108 39.1429 31.4358 39.1429C31.1139 39.138 30.7945 39.2006 30.4983 39.3268C30.202 39.453 29.9356 39.6399 29.7161 39.8755C29.2425 40.3639 29.0071 40.9883 29.0071 41.7505C29.0071 42.4987 29.2452 43.1223 29.7239 43.6167V43.6176ZM40.6887 49.9141C39.7337 49.9141 38.9297 49.6577 38.2782 49.1467C37.6268 48.6356 37.1602 48.0443 36.8777 47.3693L38.5242 46.6865C38.6968 47.0999 38.9602 47.4583 39.3378 47.7626C39.7154 48.067 40.1576 48.2179 40.6913 48.2179C41.4082 48.2179 41.9715 47.9999 42.377 47.5664C42.7826 47.133 42.9875 46.506 42.9875 45.6914V45.081H42.9221C42.3988 45.7324 41.634 46.0595 40.6582 46.0595C39.5611 46.0595 38.6 45.6409 37.7742 44.8054C37.373 44.4105 37.0563 43.9381 36.8435 43.417C36.6306 42.8959 36.5259 42.3369 36.5358 41.774C36.5257 41.2077 36.6302 40.6451 36.843 40.1201C37.0558 39.5951 37.3726 39.1186 37.7742 38.7191C38.5983 37.8793 39.562 37.4572 40.6582 37.4572C41.1465 37.4572 41.5896 37.5488 41.9855 37.7345C42.3814 37.9203 42.6945 38.1479 42.9221 38.4174H42.9875V37.7249H44.7805V45.449C44.7805 46.949 44.3985 48.0688 43.6311 48.8153C42.8637 49.5565 41.8852 49.9315 40.6896 49.9315L40.6887 49.9141ZM40.8195 44.3572C41.1304 44.3626 41.4386 44.2991 41.722 44.171C42.0054 44.043 42.2568 43.8537 42.4581 43.6167C42.8977 43.1223 43.1175 42.5066 43.1175 41.7662C43.1175 41.0179 42.8977 40.3918 42.4581 39.8912C42.258 39.6523 42.0069 39.4612 41.7234 39.3318C41.4399 39.2023 41.1311 39.1378 40.8195 39.1429C40.1567 39.1429 39.5916 39.3941 39.1259 39.8912C38.6602 40.3883 38.4247 41.0144 38.4247 41.7662C38.4247 42.504 38.6576 43.1223 39.1259 43.6167C39.5942 44.1112 40.1576 44.3572 40.8195 44.3572ZM47.9724 33.1378V45.783H46.0825V33.1378H47.9724ZM53.1525 46.0412C51.9351 46.0412 50.92 45.6278 50.1055 44.8028C49.291 43.9778 48.8828 42.9575 48.8828 41.74C48.8828 40.4807 49.2753 39.4464 50.0636 38.6441C50.4335 38.2549 50.88 37.9467 51.3751 37.739C51.8702 37.5312 52.4029 37.4284 52.9398 37.4371C53.4604 37.4371 53.9453 37.5313 54.39 37.7223C54.8036 37.8918 55.1798 38.1406 55.4976 38.4549C55.7626 38.7187 55.9977 39.0108 56.1988 39.3261C56.3649 39.5955 56.5067 39.8792 56.6226 40.1738L56.8188 40.6621L51.0683 43.0447C51.5043 43.9133 52.202 44.3484 53.1543 44.3484C54.0229 44.3484 54.7302 43.9534 55.2717 43.1598L56.7368 44.1383C56.4098 44.6266 55.9493 45.067 55.352 45.4577C54.7546 45.8484 54.0194 46.042 53.1508 46.042L53.1525 46.0412ZM50.7578 41.6109L54.595 40.015C54.4851 39.7429 54.2863 39.5232 53.9845 39.3557C53.6811 39.1858 53.3381 39.0991 52.9903 39.1046C52.4357 39.1046 51.9177 39.3313 51.4354 39.7874C50.9531 40.2435 50.7203 40.8531 50.7421 41.6118L50.7578 41.6109ZM66.7431 46.0412C65.0251 46.0412 63.5862 45.4603 62.4246 44.297C61.263 43.1336 60.6804 41.6851 60.6804 39.947C60.6804 38.2089 61.2612 36.7587 62.4246 35.597C63.5879 34.4354 65.026 33.8529 66.7431 33.8529C68.5022 33.8529 69.9315 34.4895 71.0277 35.7584L69.9856 36.77C69.2007 35.781 68.1106 35.2874 66.7414 35.2874C65.4682 35.2874 64.399 35.7165 63.5147 36.5755C62.6304 37.4345 62.2031 38.5569 62.2031 39.947C62.2031 41.3371 62.6391 42.4621 63.5147 43.322C64.3903 44.1819 65.4621 44.6101 66.7414 44.6101C68.142 44.6101 69.3376 44.0449 70.317 42.9165L71.3591 43.9586C70.813 44.6102 70.1275 45.1309 69.3533 45.4821C68.5321 45.8599 67.6374 46.0511 66.7336 46.042L66.7431 46.0412ZM74.2047 45.783H72.7047V34.1171H74.2047V45.783ZM76.6492 38.754C77.421 37.9456 78.3934 37.5392 79.5986 37.5392C80.8038 37.5392 81.7762 37.9447 82.548 38.754C83.3198 39.5633 83.7052 40.5854 83.7052 41.7932C83.7052 43.0011 83.3215 44.0231 82.548 44.8324C81.7744 45.6417 80.8038 46.0473 79.5986 46.0473C78.3934 46.0473 77.421 45.6417 76.6492 44.8324C75.8774 44.0231 75.4919 43.0011 75.4919 41.7932C75.4919 40.5854 75.8756 39.5633 76.6492 38.754ZM77.7655 43.8845C78.2887 44.4103 78.8939 44.6746 79.5968 44.6746C80.2997 44.6746 80.905 44.4103 81.4282 43.8845C81.9515 43.3586 82.2026 42.6592 82.2026 41.7915C82.2026 40.9237 81.9436 40.2235 81.4282 39.6985C80.9128 39.1735 80.2997 38.9084 79.5968 38.9084C78.8939 38.9084 78.2887 39.1726 77.7655 39.6985C77.2422 40.2243 76.991 40.9237 76.991 41.7915C76.991 42.6592 77.2501 43.3595 77.7655 43.8845ZM91.9979 45.783H90.5633V44.6755H90.4979C90.2712 45.0548 89.9223 45.3792 89.4558 45.6348C88.9892 45.8903 88.4965 46.0359 87.9732 46.0359C86.9729 46.0359 86.2169 45.7324 85.7014 45.1228C85.186 44.5133 84.927 43.6987 84.927 42.6784V37.7895H86.427V42.4325C86.427 43.922 87.0837 44.665 88.3979 44.665C88.6921 44.6712 88.9834 44.6064 89.2473 44.4762C89.5111 44.3459 89.7397 44.1541 89.9136 43.9167C90.3013 43.4251 90.5082 42.8152 90.4997 42.1891V37.7895H91.9997V45.7752L91.9979 45.783ZM97.0804 46.042C96.0488 46.042 95.1566 45.6339 94.4084 44.8194C93.6601 44.0048 93.2851 42.9949 93.2851 41.788C93.2851 40.581 93.6601 39.5711 94.4084 38.7566C95.1566 37.9421 96.0496 37.5339 97.0804 37.5339C97.6874 37.5339 98.2351 37.6648 98.72 37.9238C99.2048 38.1828 99.5659 38.5098 99.804 38.9022H99.8694L99.804 37.7947V34.1145H101.304V45.783H99.8694V44.6755H99.804C99.5659 45.0653 99.2048 45.3923 98.72 45.6539C98.2359 45.9103 97.6883 46.042 97.0804 46.042ZM97.3246 44.6728C97.6631 44.6774 97.9986 44.6101 98.3091 44.4752C98.6196 44.3404 98.8978 44.1411 99.1255 43.8906C99.6199 43.3699 99.8668 42.6679 99.8668 41.7976C99.8668 40.9272 99.6208 40.2165 99.1255 39.7046C98.8978 39.4541 98.6196 39.2548 98.3091 39.1199C97.9986 38.9851 97.6631 38.9177 97.3246 38.9223C96.6287 38.9223 96.0313 39.1865 95.5316 39.7124C95.0319 40.2383 94.7834 40.9377 94.7834 41.8054C94.7834 42.6732 95.0319 43.3734 95.5316 43.8984C95.7573 44.1498 96.0339 44.3503 96.3431 44.4865C96.6522 44.6227 96.9868 44.6916 97.3246 44.6885V44.6728Z" fill="white"/>
</svg>
