<svg width="168" height="50" viewBox="0 0 168 50" fill="none" xmlns="http://www.w3.org/2000/svg">
<path d="M1.36621 14.0447L18.7033 1.29522C19.1456 0.970011 19.7482 0.971376 20.189 1.29859L37.3579 14.0447" stroke="white" stroke-linecap="round"/>
<path d="M3.30762 37.8406H6.14648V22.9224C6.14648 22.3701 6.5942 21.9224 7.14648 21.9224H32.0467C32.599 21.9224 33.0467 22.3701 33.0467 22.9224V37.8406H35.5763V15.8325C35.5763 15.5889 35.4581 15.3605 35.2592 15.22L19.7005 4.22387C19.5272 4.10144 19.2956 4.10164 19.1226 4.22439L3.62365 15.2199C3.42541 15.3606 3.30762 15.5885 3.30762 15.8316V37.8406Z" fill="#CEE7FF" stroke="white" stroke-linecap="round"/>
<circle cx="10.8083" cy="27.7751" r="0.454773" fill="#CEE7FF"/>
<path fill-rule="evenodd" clip-rule="evenodd" d="M7.41504 25.0723C7.41504 24.3819 7.97468 23.8223 8.66504 23.8223H30.2197C30.9101 23.8223 31.4697 24.3819 31.4697 25.0723V30.4758C31.4697 31.1662 30.9101 31.7258 30.2197 31.7258H8.66504C7.97468 31.7258 7.41504 31.1662 7.41504 30.4758V25.0723ZM12.5829 27.7739C12.5829 28.7554 11.7872 29.5511 10.8056 29.5511C9.82404 29.5511 9.02832 28.7554 9.02832 27.7739C9.02832 26.7923 9.82404 25.9966 10.8056 25.9966C11.7872 25.9966 12.5829 26.7923 12.5829 27.7739ZM22.1956 27.1779C21.8663 27.1779 21.5993 27.4449 21.5993 27.7742C21.5993 28.1035 21.8663 28.3704 22.1956 28.3704H24.9015C25.2308 28.3704 25.4978 28.1035 25.4978 27.7742C25.4978 27.4449 25.2308 27.1779 24.9015 27.1779H22.1956ZM26.594 27.1779C26.2647 27.1779 25.9978 27.4449 25.9978 27.7742C25.9978 28.1035 26.2647 28.3704 26.594 28.3704H29.2999C29.6292 28.3704 29.8962 28.1035 29.8962 27.7742C29.8962 27.4449 29.6292 27.1779 29.2999 27.1779H26.594Z" fill="#CEE7FF"/>
<circle cx="10.8083" cy="36.7809" r="0.454773" fill="#CEE7FF"/>
<path fill-rule="evenodd" clip-rule="evenodd" d="M7.41504 34.0781C7.41504 33.3878 7.97468 32.8281 8.66504 32.8281H30.2197C30.9101 32.8281 31.4697 33.3878 31.4697 34.0781V39.4817C31.4697 40.172 30.9101 40.7317 30.2197 40.7317H8.66504C7.97468 40.7317 7.41504 40.172 7.41504 39.4817V34.0781ZM12.5829 36.7797C12.5829 37.7613 11.7872 38.557 10.8056 38.557C9.82404 38.557 9.02832 37.7613 9.02832 36.7797C9.02832 35.7982 9.82404 35.0024 10.8056 35.0024C11.7872 35.0024 12.5829 35.7982 12.5829 36.7797ZM22.1956 36.1838C21.8663 36.1838 21.5993 36.4507 21.5993 36.78C21.5993 37.1093 21.8663 37.3763 22.1956 37.3763H24.9015C25.2308 37.3763 25.4978 37.1093 25.4978 36.78C25.4978 36.4507 25.2308 36.1838 24.9015 36.1838H22.1956ZM26.594 36.1838C26.2647 36.1838 25.9978 36.4507 25.9978 36.78C25.9978 37.1093 26.2647 37.3763 26.594 37.3763H29.2999C29.6292 37.3763 29.8962 37.1093 29.8962 36.78C29.8962 36.4507 29.6292 36.1838 29.2999 36.1838H26.594Z" fill="#CEE7FF"/>
<circle cx="10.8083" cy="45.7849" r="0.454773" fill="#CEE7FF"/>
<path fill-rule="evenodd" clip-rule="evenodd" d="M7.41504 43.082C7.41504 42.3917 7.97468 41.832 8.66504 41.832H30.2197C30.9101 41.832 31.4697 42.3917 31.4697 43.082V48.4856C31.4697 49.176 30.9101 49.7356 30.2197 49.7356H8.66504C7.97468 49.7356 7.41504 49.176 7.41504 48.4856V43.082ZM12.5829 45.7836C12.5829 46.7652 11.7872 47.5609 10.8056 47.5609C9.82404 47.5609 9.02832 46.7652 9.02832 45.7836C9.02832 44.8021 9.82404 44.0063 10.8056 44.0063C11.7872 44.0063 12.5829 44.8021 12.5829 45.7836ZM22.1956 45.1877C21.8663 45.1877 21.5993 45.4546 21.5993 45.7839C21.5993 46.1132 21.8663 46.3802 22.1956 46.3802H24.9015C25.2308 46.3802 25.4978 46.1132 25.4978 45.7839C25.4978 45.4546 25.2308 45.1877 24.9015 45.1877H22.1956ZM26.594 45.1877C26.2647 45.1877 25.9978 45.4546 25.9978 45.7839C25.9978 46.1132 26.2647 46.3802 26.594 46.3802H29.2999C29.6292 46.3802 29.8962 46.1132 29.8962 45.7839C29.8962 45.4546 29.6292 45.1877 29.2999 45.1877H26.594Z" fill="#CEE7FF"/>
<path d="M59.5957 26.7894C59.5957 28.295 59.3203 29.5894 58.7695 30.6726C58.2187 31.7513 57.4636 32.5821 56.5042 33.1651C55.5495 33.7435 54.4639 34.0326 53.2475 34.0326C52.0266 34.0326 50.9364 33.7435 49.9771 33.1651C49.0223 32.5821 48.2695 31.749 47.7187 30.6658C47.1679 29.5825 46.8925 28.2904 46.8925 26.7894C46.8925 25.2838 47.1679 23.9917 47.7187 22.913C48.2695 21.8297 49.0223 20.9989 49.9771 20.4206C50.9364 19.8376 52.0266 19.5462 53.2475 19.5462C54.4639 19.5462 55.5495 19.8376 56.5042 20.4206C57.4636 20.9989 58.2187 21.8297 58.7695 22.913C59.3203 23.9917 59.5957 25.2838 59.5957 26.7894ZM57.4888 26.7894C57.4888 25.6419 57.3029 24.6756 56.9311 23.8907C56.5639 23.1012 56.059 22.5045 55.4164 22.1006C54.7783 21.692 54.0554 21.4878 53.2475 21.4878C52.4351 21.4878 51.7098 21.692 51.0718 22.1006C50.4338 22.5045 49.9289 23.1012 49.5571 23.8907C49.1898 24.6756 49.0062 25.6419 49.0062 26.7894C49.0062 27.9369 49.1898 28.9054 49.5571 29.6949C49.9289 30.4799 50.4338 31.0766 51.0718 31.4851C51.7098 31.889 52.4351 32.091 53.2475 32.091C54.0554 32.091 54.7783 31.889 55.4164 31.4851C56.059 31.0766 56.5639 30.4799 56.9311 29.6949C57.3029 28.9054 57.4888 27.9369 57.4888 26.7894ZM73.6295 19.7389V33.8398H71.6741L64.5066 23.4983H64.3757V33.8398H62.2482V19.7389H64.2174L71.3918 30.0943H71.5226V19.7389H73.6295ZM82.7988 25.8943V27.6845H76.5471V25.8943H82.7988ZM85.7078 33.8398V19.7389H90.734C91.8311 19.7389 92.7399 19.9386 93.4606 20.338C94.1812 20.7373 94.7206 21.2835 95.0786 21.9766C95.4366 22.6652 95.6157 23.4409 95.6157 24.3038C95.6157 25.1714 95.4343 25.9517 95.0717 26.6448C94.7137 27.3333 94.1721 27.8795 93.4468 28.2835C92.7262 28.6828 91.8196 28.8825 90.7272 28.8825H87.2708V27.0786H90.5344C91.2275 27.0786 91.7898 26.9592 92.2212 26.7205C92.6527 26.4773 92.9694 26.1468 93.1714 25.7291C93.3734 25.3114 93.4744 24.8363 93.4744 24.3038C93.4744 23.7714 93.3734 23.2986 93.1714 22.8855C92.9694 22.4724 92.6504 22.1488 92.2144 21.9147C91.7829 21.6806 91.2137 21.5635 90.5068 21.5635H87.8354V33.8398H85.7078ZM98.1098 33.8398V19.7389H103.136C104.228 19.7389 105.135 19.9271 105.856 20.3035C106.581 20.6799 107.123 21.2009 107.481 21.8665C107.839 22.5274 108.018 23.2917 108.018 24.1592C108.018 25.0222 107.836 25.7819 107.474 26.4382C107.116 27.09 106.574 27.5973 105.849 27.9599C105.128 28.3225 104.222 28.5038 103.129 28.5038H99.3216V26.6723H102.936C103.625 26.6723 104.185 26.5737 104.616 26.3763C105.052 26.1789 105.371 25.892 105.573 25.5156C105.775 25.1392 105.876 24.6871 105.876 24.1592C105.876 23.6268 105.773 23.1655 105.567 22.7753C105.365 22.3852 105.046 22.0868 104.609 21.8802C104.178 21.6691 103.611 21.5635 102.909 21.5635H100.237V33.8398H98.1098ZM105.071 27.4779L108.555 33.8398H106.131L102.716 27.4779H105.071ZM110.606 33.8398V19.7389H119.447V21.5704H112.734V25.8668H118.986V27.6914H112.734V32.0084H119.53V33.8398H110.606ZM122.289 19.7389H124.871L129.36 30.7002H129.525L134.014 19.7389H136.596V33.8398H134.572V23.636H134.441L130.283 33.8192H128.603L124.444 23.6291H124.313V33.8398H122.289V19.7389ZM141.817 19.7389V33.8398H139.69V19.7389H141.817ZM152.606 23.4432C152.533 22.7914 152.23 22.2865 151.697 21.9284C151.165 21.5658 150.495 21.3845 149.687 21.3845C149.109 21.3845 148.608 21.4763 148.186 21.6599C147.764 21.8389 147.435 22.0868 147.201 22.4035C146.972 22.7156 146.857 23.0714 146.857 23.4707C146.857 23.8058 146.935 24.095 147.091 24.3383C147.252 24.5815 147.461 24.7858 147.718 24.951C147.979 25.1117 148.259 25.2471 148.558 25.3573C148.856 25.4628 149.143 25.5501 149.418 25.6189L150.795 25.9769C151.245 26.0871 151.707 26.2363 152.179 26.4245C152.652 26.6127 153.091 26.8605 153.494 27.1681C153.898 27.4756 154.224 27.8566 154.472 28.311C154.725 28.7654 154.851 29.3094 154.851 29.9428C154.851 30.7415 154.644 31.4507 154.231 32.0703C153.823 32.69 153.228 33.1789 152.448 33.5369C151.672 33.8949 150.733 34.0739 149.632 34.0739C148.576 34.0739 147.663 33.9064 146.892 33.5713C146.12 33.2362 145.517 32.7612 145.081 32.1461C144.645 31.5264 144.404 30.792 144.358 29.9428H146.492C146.533 30.4523 146.699 30.8769 146.988 31.2166C147.282 31.5517 147.656 31.8018 148.11 31.9671C148.569 32.1277 149.072 32.208 149.618 32.208C150.219 32.208 150.754 32.114 151.222 31.9258C151.695 31.733 152.067 31.4667 152.338 31.1271C152.609 30.7828 152.744 30.3812 152.744 29.9222C152.744 29.5045 152.625 29.1625 152.386 28.8963C152.152 28.63 151.833 28.4097 151.429 28.2353C151.03 28.0609 150.577 27.9071 150.072 27.774L148.406 27.3196C147.277 27.012 146.382 26.5599 145.721 25.9632C145.065 25.3664 144.736 24.5769 144.736 23.5947C144.736 22.7822 144.957 22.073 145.397 21.4671C145.838 20.8612 146.435 20.3907 147.188 20.0557C147.94 19.716 148.79 19.5462 149.735 19.5462C150.69 19.5462 151.532 19.7137 152.262 20.0488C152.996 20.3839 153.575 20.8452 153.997 21.4327C154.419 22.0156 154.64 22.6858 154.658 23.4432H152.606ZM157.393 33.8398V19.7389H166.234V21.5704H159.521V25.8668H165.772V27.6914H159.521V32.0084H166.316V33.8398H157.393Z" fill="white"/>
</svg>
